<svg width="512" height="512" viewBox="0 0 512 512" fill="none" xmlns="http://www.w3.org/2000/svg">
<path d="M401.231 0H110.769C49.5931 0 0 49.5931 0 110.769V401.231C0 462.407 49.5931 512 110.769 512H401.231C462.407 512 512 462.407 512 401.231V110.769C512 49.5931 462.407 0 401.231 0Z" fill="#7B35A0"/>
<path d="M363.303 297.093C363.303 211.692 228.973 237.262 228.973 200.188C228.973 185.118 244.044 180.546 266.7 180.546C295.535 180.546 305.683 191.598 305.683 206.819C305.741 208.618 305.623 210.419 305.331 212.195H360.59C360.841 209.574 360.942 206.94 360.892 204.308C360.892 167.234 338.788 142.367 292.571 135.385V96.7535H243.592V134.681C201.042 140.458 170.801 164.823 170.801 204.609C170.801 290.462 305.13 263.837 305.13 301.212C305.13 315.831 292.471 321.306 267.403 321.306C244.295 321.306 226.863 314.323 226.863 294.38C226.806 292.781 226.923 291.181 227.215 289.608H172.057C171.807 292.128 171.706 294.661 171.755 297.193C171.755 325.074 185.469 358.983 243.592 366.82V398.166H292.622V366.769C335.673 360.339 363.303 334.719 363.303 297.093Z" fill="#F0EBE6"/>
<path d="M240.35 274.25H194.15L167.75 304.775L152.35 274.25H108.35L139.7 333.925L82.225 398H128.425L157.3 365L174.075 398H217.8L185.35 335.85L240.35 274.25Z" fill="#FFE85C"/>
</svg>
