<?xml version="1.0" standalone="no"?>
<!DOCTYPE svg PUBLIC "-//W3C//DTD SVG 20010904//EN"
 "http://www.w3.org/TR/2001/REC-SVG-20010904/DTD/svg10.dtd">
<svg version="1.0" xmlns="http://www.w3.org/2000/svg"
 width="400.000000pt" height="400.000000pt" viewBox="0 0 400.000000 400.000000"
 preserveAspectRatio="xMidYMid meet">

<g transform="translate(0.000000,400.000000) scale(0.100000,-0.100000)"
fill="#000000" stroke="none">
<path d="M1760 3985 c-437 -54 -832 -243 -1149 -549 -623 -601 -788 -1536
-407 -2311 443 -902 1467 -1335 2421 -1024 419 137 801 430 1048 804 384 584
432 1342 123 1970 -308 627 -900 1040 -1598 1115 -126 13 -306 11 -438 -5z
m923 -1092 c-130 -225 -285 -495 -345 -601 l-110 -193 93 -162 c51 -89 148
-258 216 -375 68 -117 123 -217 123 -222 0 -4 -106 -9 -235 -9 l-234 -2 -24
38 c-57 92 -410 708 -414 724 -4 16 74 155 528 941 l154 268 242 0 241 0 -235
-407z m-857 -97 c23 -38 57 -97 75 -131 l33 -62 -118 -204 c-66 -112 -120
-205 -121 -207 -2 -2 -24 34 -51 80 -191 331 -334 580 -334 584 0 3 323 11
430 9 45 0 45 0 86 -69z m-11 -996 l118 -205 -28 -50 c-15 -27 -105 -184 -199
-347 l-171 -298 -242 0 -241 0 105 182 c58 101 186 325 285 498 204 356 249
432 253 428 2 -2 56 -95 120 -208z"/>
</g>
</svg>
