<svg width="193" height="220" viewBox="0 0 193 220" fill="none" xmlns="http://www.w3.org/2000/svg">
<path d="M145.172 102.662H192.516C191.662 92.6752 189.258 82.8824 185.391 73.6355C179.679 59.9124 170.87 47.6961 159.654 37.9412C148.438 28.1864 135.119 21.1572 120.736 17.4031V0.0126953H104.633V62.1516C114.772 63.8284 124.133 68.6347 131.404 75.8973C138.687 83.1539 143.503 92.5171 145.172 102.662ZM120.736 31.8277C133.638 35.7901 145.375 42.8491 154.922 52.3889C164.47 61.9288 171.538 73.6597 175.511 86.5585H154.128C154.124 86.5158 154.11 86.4745 154.088 86.4377C147.765 71.4009 135.786 59.4511 120.734 53.1649L120.736 31.8277Z" fill="#325BC1"/>
<path d="M70.4113 17.7341C66.5236 18.8211 62.7053 20.1425 58.9774 21.6911C41.5011 29.0862 26.589 41.4631 16.1009 57.2778C5.6128 73.0925 0.0130194 91.6452 3.82537e-05 110.622C-0.0187051 131.694 6.85083 152.195 19.5622 169.001C32.2735 185.808 50.1298 197.999 70.4113 203.717V219.398H86.5147V158.938C75.4332 156.629 65.4849 150.574 58.3437 141.791C51.2024 133.009 47.3039 122.035 47.304 110.715C47.301 99.3937 51.1983 88.4167 58.3398 79.6316C65.4812 70.8465 75.4311 64.7896 86.5147 62.4804V0H70.4113V17.7341ZM70.4113 54.0664C59.604 59.0631 50.4519 67.0476 44.0354 77.0772C37.619 87.1069 34.2062 98.763 34.1998 110.669C34.189 122.59 37.594 134.264 44.0115 144.309C50.4291 154.355 59.5905 162.351 70.4113 167.352V189.012C53.9976 183.513 39.7267 172.996 29.6147 158.947C19.5027 144.897 14.0609 128.025 14.0581 110.715C14.0588 93.402 19.5006 76.5268 29.6144 62.4747C39.7282 48.4226 54.0025 37.9043 70.4197 32.4065L70.4113 54.0664Z" fill="#325BC1"/>
<path d="M178.492 120.773H144.796C142.825 130.221 138.123 138.882 131.274 145.681C124.424 152.479 115.729 157.117 106.267 159.018H104.617V219.409H120.72V204.289C125.314 203.104 129.815 201.583 134.187 199.74C150.045 192.965 163.801 182.069 174.028 168.183C184.254 154.298 190.577 137.928 192.342 120.773H178.492ZM120.723 189.654V168.277C120.762 168.257 120.823 168.238 120.864 168.217C135.19 162.182 146.737 151.001 153.231 136.877H174.87C170.685 149.342 163.591 160.631 154.175 169.809C144.759 178.987 133.291 185.79 120.723 189.654Z" fill="#325BC1"/>
</svg>
