<svg xmlns="http://www.w3.org/2000/svg" viewBox="0 0 2803.33 1989.47"><defs><style>.cls-1{fill:#e91d3d;}.cls-2{fill:#fff;}</style></defs><g id="Layer_2" data-name="Layer 2"><g id="Layer_1-2" data-name="Layer 1"><path class="cls-1" d="M2041.81,823.32H1277.33V397H1159.58V882.2a58.89,58.89,0,0,0,58.87,58.89h669.81L1750,1065.46H1008.06V359.91h764.45a58.74,58.74,0,0,0,39.37-15.12l269.29-242.13A58.88,58.88,0,0,0,2041.81,0H1218.45a58.9,58.9,0,0,0-58.87,58.88V205h117.75V117.75h610.93L1750,242.15H1277.33v-.07H1159.58v.07H949.17a58.85,58.85,0,0,0-58.84,58.9v823.3a58.86,58.86,0,0,0,58.84,58.88h823.34a58.89,58.89,0,0,0,39.37-15.08L2081.17,926a58.88,58.88,0,0,0-39.36-102.66Z"/><path class="cls-2" d="M240.15,1506c97,0,202,52.84,220.1,177.93H342.48c-16.71-47.49-52.14-68.9-102.33-68.9-70.26,0-116.4,52.86-116.4,130.44,0,68.9,45.47,129.12,116.4,129.79,50.84,0,91.64-25.43,104.38-75.58H462.25c-17.39,132.44-122.44,184.63-222.1,184.63C121.07,1985,.67,1904.67,0,1745.45.67,1586.25,121.07,1506,240.15,1506Z"/><path class="cls-2" d="M498.31,1746.12c0-323.76,480.32-323.76,480.32,0C978.63,2070.59,498.31,2070.59,498.31,1746.12Zm357.9,0c0-168.56-234.83-168.56-234.83,0C621.38,1916,856.21,1916,856.21,1746.12Z"/><path class="cls-2" d="M1442.14,1510H1485v469.6H1362.54V1770.88l-99.66,104.36h-13.39l-99-104.36V1979.6h-122.4V1510h44.14l183.31,203.35Z"/><path class="cls-2" d="M1740.45,1979.6H1563.84V1511.33h176.61C2045.48,1512.67,2045.48,1978.25,1740.45,1979.6Zm-56.88-109h56.88c149.18,0,149.18-250.23,0-250.23h-56.88Z"/><path class="cls-2" d="M2312.36,1618.36H2139.1v66.23h159.2V1791H2139.1v82.29h179.28V1979.6H2020V1511.33h292.33Z"/><path class="cls-2" d="M2584.55,1832.42l-89.62,147.18h-125.1v-18.07L2521,1731.41l-135.16-202v-18.06h122.44l76.23,121.76h3.37l78.27-121.76h120.42v18.06l-135.13,202,151.85,230.12v18.07H2677.56l-89-147.18Z"/></g></g></svg>