<svg width="40" height="40" viewBox="0 0 40 40" fill="none" xmlns="http://www.w3.org/2000/svg">
<rect width="40" height="40" rx="20" fill="url(#paint0_linear_2157_2152)"/>
<rect x="1.66669" y="1.66667" width="36.6667" height="36.6667" rx="18.3333" fill="#171717"/>
<g clip-path="url(#clip0_2157_2152)">
<path d="M35 20C35 11.7157 28.2843 5 20 5C11.7157 5 5 11.7157 5 20C5 28.2843 11.7157 35 20 35C28.2843 35 35 28.2843 35 20Z" fill="#E50571"/>
<path d="M29.7886 17.9196C29.3965 16.0405 28.4651 14.3193 27.0761 12.9304C25.1861 11.0403 22.6753 10 20.0009 10C17.3265 10 14.8155 11.0349 12.9255 12.9249C12.4625 13.3879 12.0594 13.8836 11.7054 14.4064C11.6019 14.5481 11.5039 14.6951 11.4222 14.8531C10.4962 16.3945 10.0005 18.1539 10.0005 20.0002C10.0005 22.6746 11.0409 25.1856 12.9309 27.0756C14.821 28.9656 17.3319 30.006 20.0063 30.006C22.6806 30.006 25.1916 28.9656 27.0816 27.0756C27.9695 26.1879 28.6775 25.1529 29.1733 24.0364C29.2331 23.9165 29.2821 23.7857 29.3311 23.6551C29.7833 22.5112 30.0175 21.2749 30.0175 20.0057C30.0175 19.3357 29.9521 18.6985 29.8214 18.0557C29.8159 18.0231 29.7941 17.9414 29.7886 17.9196ZM26.3191 13.3498C26.3735 13.4042 26.4335 13.4587 26.4934 13.5186C27.3758 14.401 28.062 15.4359 28.5141 16.5579C28.5578 16.6669 28.4651 16.7921 28.3399 16.7703C28.0784 16.7213 27.7789 16.705 27.452 16.7104C27.2233 16.7159 27.0218 16.5525 26.9836 16.3346C26.8039 15.3324 26.5424 14.4119 26.2156 13.6058C26.1993 13.5622 26.1775 13.5186 26.1611 13.4642C26.1175 13.3607 26.2429 13.2681 26.3191 13.3498ZM27.2723 19.216C27.2723 19.1125 27.403 19.0634 27.4684 19.1506C27.5391 19.2541 27.6154 19.363 27.6863 19.4665C27.7789 19.6081 27.866 19.7497 27.9423 19.8914C27.9913 19.9785 27.9804 20.0874 27.915 20.1636C27.8115 20.2781 27.6916 20.4034 27.5664 20.5286C27.5229 20.5722 27.4738 20.6213 27.4248 20.6702C27.3649 20.7247 27.2614 20.6811 27.2669 20.6049C27.2723 20.4524 27.2778 20.3053 27.2778 20.1474C27.2831 19.826 27.2831 19.521 27.2723 19.216ZM14.6739 12.5273C16.2208 11.4216 18.0618 10.8279 20.0009 10.8279C20.5129 10.8279 21.0194 10.8715 21.515 10.9477C21.6458 10.9695 21.6948 11.1384 21.5859 11.2201C21.1065 11.5959 20.6654 12.1515 20.2678 12.8705C20.1751 13.0502 19.9681 13.1319 19.772 13.0774C18.4649 12.7125 17.1794 12.5382 15.992 12.5763C15.5508 12.5927 15.1423 12.6362 14.7501 12.707C14.6412 12.7343 14.5867 12.5927 14.6739 12.5273ZM13.3666 26.2369C13.1706 25.8774 13.4211 25.0331 14.6902 23.7476C14.8209 23.6169 14.8101 23.3991 14.663 23.2792C14.614 23.2411 14.5649 23.203 14.5105 23.1594C14.3852 23.0614 14.2 23.0669 14.0856 23.1812C14.0584 23.2084 14.042 23.2247 14.0366 23.2302C13.4048 23.8784 12.9581 24.483 12.713 25.0276C12.6422 25.1856 12.4298 25.202 12.3372 25.0549C11.3513 23.5734 10.823 21.8304 10.823 20.0057C10.823 19.3575 10.8884 18.7094 11.0245 18.0885C11.0463 17.9959 11.177 17.9904 11.2097 18.083C11.4004 18.7094 11.7108 19.363 12.1357 20.0166C12.713 20.899 13.4701 21.7488 14.3743 22.533C14.6793 22.7999 15.0061 23.0559 15.3493 23.3065C16.041 23.813 16.7818 24.276 17.577 24.6845C17.9256 24.8698 18.2743 25.0385 18.6228 25.202C18.8189 25.2891 19.0422 25.2945 19.2382 25.2183C19.4071 25.1529 19.5705 25.0876 19.7394 25.0168C19.9246 24.9405 20.0226 24.7444 19.9736 24.5484C19.9681 24.5265 19.9628 24.5048 19.9628 24.4939C19.6849 23.3338 19.5324 22.021 19.5106 20.6539C19.5106 20.6375 19.5106 20.3271 19.5106 20.0057C19.5106 19.6844 19.5215 19.5373 19.5324 19.3031C19.6141 17.6473 19.8974 16.0949 20.344 14.7823C20.3821 14.6624 20.3221 14.5317 20.1969 14.4881C20.0825 14.45 19.9628 14.4119 19.8429 14.3738C19.7285 14.3356 19.5977 14.401 19.5542 14.5208C19.0694 15.9424 18.7699 17.6255 18.6936 19.4066C18.6828 19.6354 18.5629 19.8424 18.3667 19.9567C17.3101 20.5831 16.346 21.2476 15.5018 21.9121C15.3275 22.0538 15.0769 22.0429 14.9081 21.9013C14.0693 21.1714 13.3612 20.3815 12.8274 19.5591C11.7762 17.9469 11.5256 16.4326 12.1248 15.2834L12.1302 15.2779C12.2065 15.1526 12.2882 15.0274 12.3699 14.9075C13.0562 14.0034 14.3307 13.475 16.0247 13.4151C16.1282 13.4097 16.2426 13.4097 16.346 13.4097C17.3864 13.4097 18.4975 13.584 19.6305 13.9108C19.6523 13.9162 19.8156 13.9652 19.8484 13.9761C20.137 14.0687 20.6273 14.2376 20.6926 14.2594C20.7198 14.2703 20.8723 14.3302 20.8941 14.3356C21.4496 14.5535 21.9998 14.7986 22.5445 15.0818C23.6011 15.632 24.5653 16.2747 25.4149 16.9828C23.8081 17.3477 21.9399 18.0612 20.0608 19.0144C19.9736 19.058 19.9136 19.1451 19.9082 19.2431C19.9028 19.3575 19.8919 19.5918 19.8865 19.7824C19.881 19.8968 20.0063 19.9785 20.1097 19.924C21.9725 18.9436 23.8299 18.2191 25.4259 17.827C25.7254 17.7562 25.916 17.473 25.8779 17.1679C25.8506 16.9555 25.818 16.7431 25.7799 16.5416C25.7363 16.2856 25.5893 16.0514 25.3876 15.8989C24.6415 15.3324 23.819 14.8095 22.9366 14.3465C22.343 14.0361 21.7438 13.7692 21.1338 13.535C21.0085 13.4859 20.9486 13.3334 21.0194 13.2136C21.6403 12.1025 22.3811 11.4815 23.1055 11.4815C23.1109 11.4815 23.1219 11.4815 23.1273 11.4815C23.977 11.4979 24.8213 12.3802 25.453 13.9108C25.769 14.6842 26.0141 15.5775 26.1884 16.547C26.2374 16.8194 26.2755 17.0971 26.3083 17.3804C26.3245 17.5275 26.3518 17.7508 26.3681 17.8488C26.4389 18.5841 26.4661 19.3521 26.4553 20.131C26.4444 20.6266 26.4226 21.1169 26.379 21.5907C25.2406 22.5057 23.8354 23.4263 22.2885 24.2434C21.8691 24.4611 21.4496 24.6736 21.0358 24.8697C20.9486 24.9132 20.5891 25.0712 20.5673 25.0821C20.1751 25.2619 19.7884 25.4199 19.4016 25.5724C19.3799 25.5832 18.9441 25.7466 18.9169 25.7575C18.8842 25.7684 18.6609 25.8501 18.6336 25.861C17.8004 26.1551 16.9997 26.3785 16.2698 26.5201C14.4233 26.8741 13.5573 26.6018 13.3666 26.2369ZM15.8776 22.6746C16.6837 22.021 17.6315 21.3565 18.6719 20.7356C18.6936 22.0646 18.8406 23.3446 19.1021 24.4939C18.7209 24.325 18.3341 24.1507 17.9529 23.9492C17.2121 23.5679 16.5149 23.1376 15.8776 22.6746ZM21.1828 29.1019C20.796 29.1509 20.3985 29.1781 20.0009 29.1781C18.2143 29.1781 16.5094 28.6715 15.0497 27.7292C14.9517 27.6639 14.9952 27.5059 15.1096 27.5005C15.1314 27.5005 15.1587 27.5005 15.175 27.495C15.5454 27.4733 15.9539 27.4188 16.3951 27.3316C17.3319 27.1465 18.3776 26.8414 19.4725 26.422C19.5705 26.3839 19.6795 26.4329 19.723 26.531C20.1479 27.5659 20.6654 28.3448 21.259 28.8404C21.3625 28.9275 21.3135 29.0855 21.1828 29.1019ZM25.0664 26.6507C24.4128 27.9416 23.6066 28.6606 22.8223 28.6443C21.9725 28.628 21.1283 27.7456 20.4965 26.215C20.4584 26.1225 20.5019 26.0081 20.5945 25.9645C20.6 25.959 20.6054 25.959 20.6163 25.9536C20.6545 25.9373 20.7035 25.9319 20.747 25.9428C21.9181 26.2695 23.0783 26.4438 24.1621 26.4438C24.2765 26.4438 24.3964 26.4439 24.5108 26.4384C24.6415 26.4329 24.7776 26.4275 24.9084 26.4166C25.0336 26.4166 25.1208 26.5419 25.0664 26.6507ZM25.3495 25.5396C25.0773 25.5778 24.7885 25.605 24.489 25.6159C23.7536 25.6431 22.9748 25.5778 22.1795 25.4307C22.0815 25.4144 22.0651 25.2782 22.1523 25.2346C22.3266 25.1475 22.5009 25.0549 22.6753 24.9622C23.8953 24.3141 25.0391 23.606 26.0359 22.8816C26.1066 22.8271 26.2156 22.8925 26.1993 22.9796C26.0576 23.813 25.8725 24.5974 25.6274 25.3054C25.5784 25.4361 25.4749 25.5233 25.3495 25.5396ZM26.7058 26.2695C26.6405 26.3404 26.5643 26.4166 26.4934 26.4874C26.3735 26.6073 26.2374 26.7325 26.1121 26.8469C26.0304 26.9176 25.9051 26.8305 25.9488 26.7325C25.9596 26.7052 25.976 26.678 25.9869 26.6454C26.0413 26.5255 26.0904 26.4002 26.1503 26.275C26.1611 26.2477 26.1884 26.226 26.2156 26.215C26.3409 26.1824 26.4716 26.1442 26.5914 26.1061C26.7004 26.0734 26.7766 26.1988 26.7058 26.2695ZM28.5469 23.361C28.5088 23.4535 28.476 23.5461 28.4324 23.6388C28.4215 23.6551 28.3671 23.7695 28.3616 23.7857C28.0566 24.3467 27.5555 24.788 26.9019 25.0985C26.7494 25.1692 26.586 25.0331 26.6295 24.8697C26.8584 24.0636 27.0218 23.1921 27.1361 22.2716C27.1579 22.0973 27.2396 21.9448 27.3703 21.8304C27.6481 21.5908 27.9095 21.3456 28.1493 21.106C28.2636 20.9916 28.4651 21.0406 28.5141 21.1986C28.7484 21.9884 28.7646 22.7236 28.5469 23.361ZM28.732 19.0634C28.6666 19.1833 28.4869 19.1888 28.4106 19.0744C28.3998 19.058 28.3889 19.0362 28.378 19.0199C28.1056 18.595 27.7898 18.1865 27.4411 17.7835C27.354 17.6854 27.4248 17.5329 27.5555 17.5275H27.561C28.3834 17.5275 28.8138 17.7344 28.9444 17.9795C29.0479 18.1865 29.0153 18.5514 28.732 19.0634ZM29.1786 20.2726C29.1786 20.3325 29.0915 20.3489 29.0698 20.2944C29.0589 20.2726 29.0479 20.2454 29.037 20.2236C29.0153 20.18 29.0206 20.1255 29.0534 20.082C29.0589 20.0765 29.0698 20.0603 29.086 20.0384C29.1241 19.9894 29.1841 19.9949 29.1841 20.0492C29.1786 20.1255 29.1786 20.1964 29.1786 20.2726Z" fill="white"/>
</g>
<defs>
<linearGradient id="paint0_linear_2157_2152" x1="39.9999" y1="1.51992e-05" x2="38.5461" y2="41.3551" gradientUnits="userSpaceOnUse">
<stop stop-color="#FFD100"/>
<stop offset="1" stop-color="#FF7729"/>
</linearGradient>
<clipPath id="clip0_2157_2152">
<rect width="30" height="30" fill="white" transform="translate(5 5)"/>
</clipPath>
</defs>
</svg>
