<svg width="400" height="400" viewBox="0 0 400 400" fill="none" xmlns="http://www.w3.org/2000/svg">
<mask id="mask0_732:1407" style="mask-type:alpha" maskUnits="userSpaceOnUse" x="0" y="0" width="400" height="400">
<circle cx="200" cy="200" r="200" fill="#C4C4C4"/>
</mask>
<g mask="url(#mask0_732:1407)">
<circle cx="204.197" cy="193.514" r="296.582" transform="rotate(-30 204.197 193.514)" fill="url(#paint0_linear_732:1407)"/>
</g>
<g clip-path="url(#clip0_732:1407)">
<path d="M224.045 217.281V217.231C210.693 216.965 199.951 206.356 199.951 193.286C199.951 206.329 189.247 216.921 175.933 217.225V217.281C189.247 217.585 199.951 228.177 199.951 241.22C199.945 228.155 210.693 217.546 224.045 217.281Z" fill="white"/>
<path d="M219.098 97.9999H181.901C177.104 97.9999 172.713 100.666 170.514 104.914L85.8102 268.557C83.3452 273.325 86.8151 279.005 92.2004 279.005H134.972C139.813 279.005 144.238 276.29 146.414 271.986L169.165 227C172.258 220.883 172.208 213.659 169.026 207.586L152.654 176.323C148.202 167.821 154.397 157.644 164.024 157.655L237.058 157.732C246.685 157.743 252.859 167.932 248.39 176.422L229.963 211.446C228.042 215.092 228.009 219.439 229.869 223.117L254.585 271.992C256.762 276.295 261.187 279.011 266.028 279.011H308.799C314.184 279.011 317.654 273.33 315.189 268.562L230.485 104.914C228.287 100.666 223.889 97.9999 219.098 97.9999Z" fill="white"/>
</g>
<defs>
<linearGradient id="paint0_linear_732:1407" x1="204.197" y1="-103.067" x2="204.197" y2="490.096" gradientUnits="userSpaceOnUse">
<stop offset="0.40625" stop-color="#1A9ED5"/>
<stop offset="1" stop-color="#293AE0"/>
</linearGradient>
<clipPath id="clip0_732:1407">
<rect width="231" height="181" fill="white" transform="translate(85 98)"/>
</clipPath>
</defs>
</svg>
