<svg version="1.1" xmlns="http://www.w3.org/2000/svg" viewBox="0 0 2500 2500">
  <circle fill="#2E3148" cx="1250" cy="1250" r="1250" />
  <circle fill="#1B1E36" cx="1250.4" cy="1250.4" r="619.2" />
  <path
    fill="#6F7390"
    d="M1252.6,319.4c-115.2,0-208.6,417.8-208.6,933.1s93.4,933.1,208.6,933.1s208.6-417.8,208.6-933.1
	S1367.8,319.4,1252.6,319.4z M1267,2133.1c-13.2,17.6-26.3,4.4-26.3,4.4c-53-61.5-79.6-175.6-79.6-175.6
	c-92.8-298.6-70.7-939.7-70.7-939.7c43.6-509,122.9-629.2,149.9-655.9c5.7-5.6,14.6-6.3,21.1-1.7c39.2,27.8,72,143.8,72,143.8
	c97,360.1,88.2,698.2,88.2,698.2c8.8,294.2-48.6,623.6-48.6,623.6C1328.8,2080.3,1267,2133.1,1267,2133.1z"
  />
  <path
    fill="#6F7390"
    d="M2062,788.2c-57.3-99.9-466.2,27-913.4,283.4S385.8,1617,443.1,1716.9c57.3,99.9,466.2-27,913.4-283.4
	S2119.3,888.1,2062,788.2L2062,788.2z M496,1703.2c-22-2.8-17-20.8-17-20.8C506,1605.8,591.7,1526,591.7,1526
	c212.9-229.1,780.1-529,780.1-529c463.1-215.5,607-206.4,643.5-196.3c7.7,2.2,12.8,9.6,12,17.6c-4.4,47.8-88.9,134-88.9,134
	c-263.9,263.4-561.6,424.1-561.6,424.1c-250.8,154.1-565.1,268.1-565.1,268.1C572.5,1730.6,496.1,1703.2,496,1703.2L496,1703.2
	L496,1703.2z"
  />
  <path
    fill="#6F7390"
    d="M2059.9,1720.2c57.8-99.7-256.9-389.9-702.6-648.3S502.9,685,445.2,784.9s256.9,389.9,702.8,648.3
	S2002.2,1820.1,2059.9,1720.2z M483.5,823.4c-8.5-20.2,9.5-25.1,9.5-25.1c79.8-15.1,191.9,19.3,191.9,19.3
	c304.9,69.4,848.5,410,848.5,410c418.6,292.9,482.8,421.9,492.4,458.5c2,7.8-1.8,15.8-9.1,19.1c-43.6,20-160.5-9.8-160.5-9.8
	c-360.3-96.6-648.5-273.6-648.5-273.6c-258.9-139.6-514.9-354.5-514.9-354.5C498.2,903.5,483.5,823.6,483.5,823.6L483.5,823.4z"
  />
  <circle fill="#B7B9C8" cx="1250.4" cy="1250.4" r="109.8" />
  <ellipse fill="#B7B9C8" cx="1700.5" cy="828.8" rx="63.7" ry="65.9" />
  <ellipse fill="#B7B9C8" cx="655.4" cy="1052.8" rx="63.7" ry="65.9" />
  <ellipse fill="#B7B9C8" cx="1120.8" cy="1860.8" rx="63.7" ry="65.9" />
</svg>
