<svg viewBox="0 0 100 100" xmlns="http://www.w3.org/2000/svg" class="grow"><defs><clipPath id="uaxl-d_svg__a"><path d="M1920 0v11288H0V0h1920z"></path></clipPath><clipPath id="uaxl-d_svg__b"><path d="M50 0c27.614 0 50 22.386 50 50s-22.386 50-50 50S0 77.614 0 50 22.386 0 50 0z"></path></clipPath><clipPath id="uaxl-d_svg__c"><path d="m39.029 0 7.403 7.363-19.514 19.405a5.256 5.256 0 0 1-3.705 1.524 5.235 5.235 0 0 1-3.7-1.524L0 7.363 7.403 0l15.813 15.726L39.029 0z"></path></clipPath><clipPath id="uaxl-d_svg__d"><path d="m21.047 0 7.402 7.363L12.636 23.09l15.81 15.724-7.4 7.36L1.535 26.769a5.186 5.186 0 0 1 0-7.363L21.047 0z"></path></clipPath><clipPath id="uaxl-d_svg__e"><path d="M19.513 1.524a5.257 5.257 0 0 1 7.403 0l19.513 19.405-7.403 7.363-15.812-15.726L7.403 28.292 0 20.93z"></path></clipPath><clipPath id="uaxl-d_svg__f"><path d="m7.403 0 19.513 19.405a5.181 5.181 0 0 1 0 7.363L7.403 46.178 0 38.817 15.813 23.09 0 7.363 7.403 0z"></path></clipPath></defs><g clip-path="url(#uaxl-d_svg__a)" transform="translate(-1446 -7973)"><g clip-path="url(#uaxl-d_svg__b)" transform="translate(1446 7973)"><path d="M0 0h100v100H0V0z"></path></g><g clip-path="url(#uaxl-d_svg__c)" transform="translate(1472.797 7991.213)"><path fill="#FFF" d="M0 0h46.432v28.292H0V0z"></path></g><g clip-path="url(#uaxl-d_svg__d)" transform="translate(1499.514 7999.895)"><path fill="#FFF" d="M0 0h28.45v46.174H0V0z"></path></g><g clip-path="url(#uaxl-d_svg__e)" transform="translate(1472.774 8026.497)"><path fill="#FFF" d="M0 0h46.429v28.292H0V0z"></path></g><g clip-path="url(#uaxl-d_svg__f)" transform="translate(1464.037 7999.926)"><path fill="#FFF" d="M0 0h28.45v46.179H0V0z"></path></g></g></svg>
