<svg
  xmlns="http://www.w3.org/2000/svg"
  xmlns:xlink="http://www.w3.org/1999/xlink"
  version="1.1"
  viewBox="0 0 500 500"
>
  <defs>
    <clipPath id="clippath">
      <rect fill="none" width="500" height="500" />
    </clipPath>
    <clipPath id="clippath-1">
      <rect fill="none" x="299.6" y="299.6" width="200" height="200" />
    </clipPath>
  </defs>
  <g clip-path="url(#clippath)">
    <path
      fill="white"
      d="M492.5,310.6c-33.3,133.8-168.6,215.3-303.9,181.9C55.4,459-25.8,323.2,7.5,189.4,40.8,55.6,176.1-25.9,309.3,7.5c135.3,33.4,216.5,169.3,183.2,303.1h0Z"
    />
    <polygon
      fill="#343434"
      points="249 24.2 246.9 34.7 246.9 331.5 249 335.7 386.4 254.2 249 24.2"
    />
    <polygon
      fill="#8c8c8c"
      points="249 24.2 111.6 254.2 249 335.7 249 191.5 249 24.2"
    />
    <polygon
      fill="#3c3c3b"
      points="249 360.8 246.9 362.9 246.9 469.5 249 473.7 386.4 279.3 249 360.8"
    />
    <polygon
      fill="#8c8c8c"
      points="249 473.7 249 360.8 111.6 279.3 249 473.7"
    />
    <polygon
      fill="#141414"
      points="249 335.7 386.4 254.2 249 191.5 249 335.7"
    />
    <polygon
      fill="#393939"
      points="111.6 254.2 249 335.7 249 191.5 111.6 254.2"
    />
  </g>
  <g clip-path="url(#clippath-1)">
    <path
      fill="white"
      d="M399.7,499.5c55.1,0,99.8-44.7,99.8-99.8s-44.7-99.8-99.8-99.8-99.8,44.7-99.8,99.8,44.7,99.8,99.8,99.8Z"
    />
    <path
      fill="black"
      d="M408.7,387.5l47.4-47.4-18-18-38.4,38.4-38.4-38.4-18,18,47.4,47.4c2.5,2.5,5.7,3.7,9,3.7s6.5-1.2,9-3.7ZM477.3,438l-38.4-38.4,38.4-38.4-18-18-47.4,47.4c-5,5-5,13,0,18l47.4,47.4,18-18ZM399.7,438.9l38.4,38.4,18-18-47.4-47.4c-5-5-13-5-18,0l-47.4,47.4,18,18,38.4-38.4ZM387.5,408.7c2.4-2.4,3.7-5.6,3.7-9s-1.3-6.6-3.7-9l-47.4-47.4-18,18,38.4,38.4-38.4,38.4,18,18,47.4-47.4Z"
    />
  </g>
  <circle
    stroke="black"
    stroke-width="5px"
    fill="none"
    cx="400"
    cy="400"
    r="97.5"
  />
</svg>
