<?xml version="1.0" encoding="UTF-8"?>
<svg id="Layer_1" data-name="Layer 1" xmlns="http://www.w3.org/2000/svg" xmlns:xlink="http://www.w3.org/1999/xlink" version="1.1" viewBox="0 0 500 500">
  <defs>
    <clipPath id="clippath">
      <rect width="500" height="500" style="fill: none; stroke-width: 0px;"/>
    </clipPath>
    <clipPath id="clippath-1">
      <rect x="299.6" y="299.6" width="200" height="200" style="fill: none; stroke-width: 0px;"/>
    </clipPath>
  </defs>
  <g style="clip-path: url(#clippath);">
    <path d="M250,0h0c138.1,0,250,111.9,250,250h0c0,138.1-111.9,250-250,250h0C111.9,500,0,388.1,0,250h0C0,111.9,111.9,0,250,0Z" style="fill: #00a3ff; stroke-width: 0px;"/>
    <path d="M352.6,232.2l2.8,4.3c31.6,48.4,24.5,111.8-17,152.5-24.4,23.9-56.4,35.9-88.3,35.9l102.5-192.6Z" style="fill: #fff; isolation: isolate; opacity: .6; stroke-width: 0px;"/>
    <path d="M250,290.8l102.5-58.5q-102.5,192.6-102.5,192.6v-134.1Z" style="fill: #fff; isolation: isolate; opacity: .2; stroke-width: 0px;"/>
    <path d="M147.4,232.2l-2.8,4.3c-31.6,48.4-24.5,111.8,17,152.5,24.4,23.9,56.4,35.9,88.3,35.9l-102.5-192.6Z" style="fill: #fff; stroke-width: 0px;"/>
    <path d="M249.9,290.8l-102.5-58.5,102.5,192.6v-134.1Z" style="fill: #fff; isolation: isolate; opacity: .6; stroke-width: 0px;"/>
    <path d="M250.1,160v101l88.3-50.5-88.3-50.5Z" style="fill: #fff; isolation: isolate; opacity: .2; stroke-width: 0px;"/>
    <path d="M250.1,160l-88.4,50.5,88.4,50.5v-101Z" style="fill: #fff; isolation: isolate; opacity: .6; stroke-width: 0px;"/>
    <path d="M250.1,75.1l-88.4,135.5,88.4-50.7v-84.8Z" style="fill: #fff; stroke-width: 0px;"/>
    <path d="M250.1,159.9l88.4,50.7-88.4-135.5v84.9Z" style="fill: #fff; isolation: isolate; opacity: .6; stroke-width: 0px;"/>
  </g>
  <g style="clip-path: url(#clippath-1);">
    <g>
      <path d="M399.7,499.5c55.1,0,99.8-44.7,99.8-99.8s-44.7-99.8-99.8-99.8-99.8,44.7-99.8,99.8,44.7,99.8,99.8,99.8Z" style="fill: #fff; stroke-width: 0px;"/>
      <path d="M408.7,387.5l47.4-47.4-18-18-38.4,38.4-38.4-38.4-18,18,47.4,47.4c2.5,2.5,5.7,3.7,9,3.7s6.5-1.2,9-3.7ZM477.3,438l-38.4-38.4,38.4-38.4-18-18-47.4,47.4c-5,5-5,13,0,18l47.4,47.4,18-18ZM399.7,438.9l38.4,38.4,18-18-47.4-47.4c-5-5-13-5-18,0l-47.4,47.4,18,18,38.4-38.4ZM387.5,408.7c2.4-2.4,3.7-5.6,3.7-9s-1.3-6.6-3.7-9l-47.4-47.4-18,18,38.4,38.4-38.4,38.4,18,18,47.4-47.4Z" style="fill: #000; stroke-width: 0px;"/>
    </g>
  </g>
  <circle cx="400" cy="400" r="97.5" style="fill: none; stroke: #000; stroke-width: 5px;"/>
</svg>