<svg
  xmlns="http://www.w3.org/2000/svg"
  xmlns:xlink="http://www.w3.org/1999/xlink"
  version="1.1"
  viewBox="0 0 500 500"
>
  <defs>
    <clipPath id="clippath">
      <rect fill="none" width="500" height="500" />
    </clipPath>
    <clipPath id="clippath-1">
      <rect fill="none" x="299.6" y="299.6" width="200" height="200" />
    </clipPath>
  </defs>
  <g clip-path="url(#clippath)">
    <path
      fill="white"
      d="M250,18.7C122.9,18.7,18.7,122.9,20.8,250c0,127.1,104.2,231.3,231.3,229.2,127.1,0,229.2-104.2,229.2-231.3S377.1,18.7,250,18.7h0Z"
    />
    <path
      fill="#28213"
      d="M250,500C112.5,500,0,387.5,0,250S112.5,0,250,0s250,112.5,250,250-112.5,250-250,250h0ZM250,18.7C122.9,18.7,18.7,122.9,20.8,250c0,127.1,104.2,231.3,231.3,229.2,127.1,0,229.2-104.2,229.2-231.3S377.1,18.7,250,18.7h0Z"
    />
    <path
      fill="#5a5564"
      d="M408.3,104.2l-14.6,14.6c68.7,75,68.7,187.5,0,262.5l14.6,14.6c75-83.3,75-208.3,0-291.7h0Z"
    />
    <path
      fill="#5a5564"
      d="M118.7,106.2c75-68.7,187.5-68.7,262.5,0l14.6-14.6c-83.3-75-208.3-75-291.7,0l14.6,14.6Z"
    />
    <path
      fill="#5a5564"
      d="M106.2,381.2c-68.7-75-68.7-187.5,0-262.5l-14.6-14.6c-75,83.3-75,208.3,0,291.7l14.6-14.6Z"
    />
    <path
      fill="#5a5564"
      d="M381.2,393.7c-75,68.7-187.5,68.7-262.5,0l-14.6,14.6c81.2,75,208.3,75,289.6,0l-12.5-14.6Z"
    />
    <path
      fill="#f09242"
      d="M337.5,204.2c-2.1-29.2-27.1-37.5-58.3-41.7v-39.6h-25v39.6h-18.7v-39.6h-25v39.6h-47.9v25s18.7,0,16.7,0c6.3,0,12.5,4.2,14.6,10.4v108.3c0,2.1-2.1,4.2-2.1,6.3-2.1,2.1-4.2,2.1-6.3,2.1h-16.7l-4.2,29.2h47.9v39.6h25v-39.6h18.7v39.6h25v-39.6c41.7-2.1,68.7-12.5,72.9-50,2.1-31.2-12.5-43.8-35.4-50,10.4-6.3,20.8-18.8,18.8-39.6ZM302.1,289.6c0,29.2-52.1,27.1-68.8,27.1v-54.2c18.8,0,68.8-4.2,68.8,27.1ZM291.7,214.6c0,27.1-43.8,25-56.2,25v-47.9c12.5,0,56.2-4.2,56.2,22.9Z"
    />
  </g>
  <g clip-path="url(#clippath-1)">
    <path
      fill="white"
      d="M399.7,499.5c55.1,0,99.8-44.7,99.8-99.8s-44.7-99.8-99.8-99.8-99.8,44.7-99.8,99.8,44.7,99.8,99.8,99.8Z"
    />
    <path
      fill="black"
      d="M408.7,387.5l47.4-47.4-18-18-38.4,38.4-38.4-38.4-18,18,47.4,47.4c2.5,2.5,5.7,3.7,9,3.7s6.5-1.2,9-3.7ZM477.3,438l-38.4-38.4,38.4-38.4-18-18-47.4,47.4c-5,5-5,13,0,18l47.4,47.4,18-18ZM399.7,438.9l38.4,38.4,18-18-47.4-47.4c-5-5-13-5-18,0l-47.4,47.4,18,18,38.4-38.4ZM387.5,408.7c2.4-2.4,3.7-5.6,3.7-9s-1.3-6.6-3.7-9l-47.4-47.4-18,18,38.4,38.4-38.4,38.4,18,18,47.4-47.4Z"
    />
  </g>
  <circle
    stroke="black"
    stroke-width="5px"
    fill="none"
    cx="400"
    cy="400"
    r="97.5"
  />
</svg>
