<svg xmlns="http://www.w3.org/2000/svg" width="512" height="512"><defs><clipPath id="a"><path data-name="Rectangle 3068" transform="translate(.215 .22)" fill="none" d="M0 0h512v512H0z"/></clipPath><clipPath id="b"><path data-name="Rectangle 3067" fill="none" d="M0 0h326.177v482.877H0z"/></clipPath></defs><g data-name="Group 9615" transform="translate(-.215 -.22)" clip-path="url(#a)"><g data-name="Group 9614"><g data-name="Group 9613" clip-path="url(#b)" transform="translate(93.126 14.782)"><path data-name="Path 9181" d="M293.671 398.137a75.35 75.35 0 0 0 32.506-62.126c-.031 16.382-21.076 23.027-30.57 9.992v-.02c-4.881-6.363-3.035-15.258-2.646-22.69 1.224-14.585 5.485-27.867 10.723-41.115 7.955-24.776 3.143-53.8-12.344-74.568 6.231 24.218-15.37 47.181-39.752 43.524-36.778-3.207-59.994-42.939-45.222-76.4h.019a55.464 55.464 0 0 1 4.937-9.064c15.616-24.225 17.981-58.413 5.786-84.837a91.4 91.4 0 0 0-16.391-24.843A72.693 72.693 0 0 1 182.827 0c-12.923 21.038-14.214 50.841-3.179 72.93a57.7 57.7 0 0 1-3.635 61.672c-22.138 31.984-72.067 11.493-64.873-27.133-11.351 15.413-14.057 38.445-6.18 56.46 1.509 3.7 3.915 7.023 5.411 10.742a75.18 75.18 0 0 1 6.26 37.837 69.6 69.6 0 0 1-2.152 12.224c-.077.382-.212.782-.3 1.165a1.554 1.554 0 0 0-.276.1c-13.127 27.469-54.048 22.58-60.014-7.643a57.58 57.58 0 0 0-46.128-45.915c15.565 9.445 24.225 30.141 19.175 48.52a186.415 186.415 0 0 0-5.589 45.44c.009 5.464.219 10.828.711 16.213a184.722 184.722 0 0 0 9.183 43.8c3.231 6.768 3.4 15.363-2.055 20.894v.019a16.948 16.948 0 0 1-23.085 1.6h-.019a17.381 17.381 0 0 1-4.049-4.957 14.424 14.424 0 0 1-1.007-2.231A16.458 16.458 0 0 1 0 336.011 75.588 75.588 0 0 0 32.7 398.3a8.952 8.952 0 0 1 2.488 11.316c-7.782 14.236-.035 33.458 14.929 38.588 17.04-21.913 52.76-13.608 58.394 13.646l.022.148a18.971 18.971 0 0 0 13.033 15.033l.078.025c5.171-12.332 23.556-8.19 22.888 5.174 1.993.256 4.009.494 6.042.652-1.032-17.545 24.678-17.556 23.639 0 2.725-.218 5.43-.553 8.1-.948-.453-12.826 17.233-17.035 22.651-5.451l.062-.021a17.876 17.876 0 0 0 11.31-11.652c1.376-4.47 2.247-9.228 4.8-13.091 11.364-19.725 40.74-21.644 54.5-3.4a27.694 27.694 0 0 0 14.988-39.24 8.926 8.926 0 0 1 3.041-10.94m-253.663 4.8a1.255 1.255 0 0 1-.1-.237.721.721 0 0 1 .217.1.9.9 0 0 0-.119.138m65.08-8.844c-54.86 0-27.9-60.686-60.686-60.686 7.662-5.529 29.425-4.917 41.688 9.5 12.244 14.4 68.329 50.575 68.329 19.925 0 0 5.528 31.261-49.33 31.261m64.812 43.9s-2.232-12.185-7.564-12.185-7.564 12.185-7.564 12.185-11-.652-11-14c0-13.33 12.678-31.774 12.678-31.774.514 3.456 2.8 5.253 5.884 5.253a5.619 5.619 0 0 0 5.865-5.253s12.679 18.444 12.679 31.774c0 13.35-10.98 14-10.98 14m51.187-43.9c-54.86 0-49.349-31.261-49.349-31.261 0 30.649 56.084-5.53 68.347-19.925 12.264-14.416 34.026-15.028 41.689-9.5-32.8 0-5.825 60.686-60.686 60.686" fill="#d545ea"/></g></g></g></svg>