<?xml version="1.0" encoding="utf-8"?>
<svg viewBox="0 0 400 399.999" xmlns="http://www.w3.org/2000/svg">
  <defs>
    <linearGradient id="paint0_linear" x1="100" y1="300" x2="500" y2="300" gradientUnits="userSpaceOnUse" gradientTransform="matrix(1, 0, 0, 1, -100.000114, -99.999909)">
      <stop stop-color="#0082FA"/>
      <stop offset="1" stop-color="#00F2FE"/>
    </linearGradient>
    <linearGradient id="paint1_linear" x1="100" y1="300" x2="500" y2="300" gradientUnits="userSpaceOnUse" gradientTransform="matrix(1, 0, 0, 1, -100.000114, -99.999909)">
      <stop stop-color="#0082FA"/>
      <stop offset="1" stop-color="#00F2FE"/>
    </linearGradient>
  </defs>
  <path d="M 48.497 69.135 C 50.981 66.013 53.613 63.009 56.245 60.005 C 56.363 59.856 56.63 59.826 56.748 59.677 C 56.985 59.38 57.37 59.201 57.606 58.903 L 57.843 58.606 C 59.678 56.91 61.63 55.064 63.881 53.456 C 71.845 47.41 80.11 42.817 88.825 39.795 C 116.778 29.981 147.894 36.029 172.295 59.065 C 206.366 91.002 203.315 142.451 176.117 176.647 C 141.748 227.625 82.684 298.748 164.463 362.46 C 179.167 373.916 190.075 383.361 236.392 396.746 C 206.1 402.326 178.012 400.59 146.748 392.605 C 124.634 380.123 89.866 353.397 78.037 317.3 C 60.159 262.562 109.513 180.732 133.365 149.216 C 166.113 105.599 113.124 58.382 74.112 111.095 C 53.72 138.566 18.044 216.303 30.442 273.965 C 37.691 306.664 47.353 330.499 85.663 363.241 C 78.559 359.049 71.66 354.294 64.968 348.974 C -24.043 266.06 -13.716 137.859 48.497 69.135 Z" fill="url(#paint0_linear)"/>
  <path d="M 351.503 330.865 C 349.019 333.987 346.387 336.991 343.755 339.995 C 343.637 340.144 343.37 340.174 343.252 340.323 C 343.015 340.62 342.63 340.799 342.394 341.097 L 342.157 341.394 C 340.322 343.09 338.37 344.936 336.119 346.544 C 328.155 352.59 319.89 357.183 311.175 360.205 C 283.222 370.019 252.106 363.971 227.705 340.935 C 193.634 308.998 196.685 257.549 223.883 223.353 C 258.252 172.375 317.316 101.252 235.537 37.54 C 220.833 26.084 209.925 16.639 163.608 3.254 C 193.9 -2.326 221.988 -0.59 253.251 7.395 C 275.366 19.877 310.134 46.603 321.963 82.7 C 339.841 137.438 290.487 219.268 266.635 250.784 C 233.887 294.401 286.876 341.618 325.888 288.905 C 346.28 261.434 381.956 183.697 369.558 126.035 C 362.309 93.336 352.647 69.501 314.337 36.759 C 321.441 40.951 328.34 45.706 335.032 51.026 C 424.043 133.94 413.716 262.141 351.503 330.865 Z" fill="url(#paint1_linear)"/>
</svg>