<?xml version="1.0" encoding="UTF-8"?>
<svg width="1000px" height="1000px" viewBox="0 0 1000 1000" version="1.1" xmlns="http://www.w3.org/2000/svg" xmlns:xlink="http://www.w3.org/1999/xlink">
    <title>Artboard</title>
    <defs>
        <path d="M363.973794,171.42511 L247.914465,118.095574 C247.914465,118.095574 255.418357,161.341659 291.232384,195.61895 L291.232384,195.61895 C17.0185685,245.488541 -1.71541766,557.914446 0.105852728,621.333876 L0.105852728,621.333876 C54.53159,941.955406 411.98969,945.228497 416.269353,945.228497 L416.269353,945.228497 C572.33871,945.228497 707.794893,849.335845 766.622568,713.682826 L766.622568,713.682826 L766.686925,713.579735 L766.693358,713.502419 C780.465507,681.705723 790.035222,647.731258 794.655974,612.287765 L794.655974,612.287765 L794.668846,612.274878 C817.399326,460.050205 771.938359,391.572941 771.938359,391.572941 L771.938359,391.572941 C768.212156,434.438883 761.692908,482.291785 750.726676,533.855912 L750.726676,533.855912 C741.755467,576.071101 731.111014,614.665268 719.9324,649.3678 L719.9324,649.3678 C731.213979,644.322856 742.489126,639.271466 753.777144,634.226519 L753.777144,634.226519 C749.394511,662.653477 731.149629,747.979445 665.583891,797.778161 L665.583891,797.778161 C617.793243,832.5258 558.392799,853.775142 493.773096,855.334374 L493.773096,855.334374 L493.657256,855.334374 C491.179555,855.360142 488.69542,855.405245 486.179106,855.405245 L486.179106,855.405245 C323.757827,855.405245 192.066464,731.220942 192.066464,578.04269 L192.066464,578.04269 C192.066464,462.736977 270.32317,349.518829 391.112654,332.831201 L391.112654,332.831201 C400.624448,346.155531 414.08769,360.008195 434.366216,360.001752 L434.366216,360.001752 C501.032435,359.988866 529.497025,350.478851 565.652138,360.001752 L565.652138,360.001752 C601.79438,369.524654 640.800457,408.576281 640.800457,408.576281 L640.800457,408.576281 L675.990231,373.332526 L687.406957,408.576281 C687.406957,408.576281 722.905646,341.374752 722.905646,272.800841 L722.905646,272.800841 C722.905646,272.800841 668.344761,317.187355 620.817968,234.283991 L620.817968,234.283991 C603.699313,182.861612 312.598524,119.996289 297.378367,0 L297.378367,0 C297.378367,0 247.914465,110.473388 363.973794,171.42511" id="path-1"></path>
        <path d="M363.973794,171.42511 L247.914465,118.095574 C247.914465,118.095574 255.418357,161.341659 291.232384,195.61895 L291.232384,195.61895 C17.0185685,245.488541 -1.71541766,557.914446 0.105852728,621.333876 L0.105852728,621.333876 C54.53159,941.955406 411.98969,945.228497 416.269353,945.228497 L416.269353,945.228497 C572.33871,945.228497 707.794893,849.335845 766.622568,713.682826 L766.622568,713.682826 L766.686925,713.579735 L766.693358,713.502419 C780.465507,681.705723 790.035222,647.731258 794.655974,612.287765 L794.655974,612.287765 L794.668846,612.274878 C817.399326,460.050205 771.938359,391.572941 771.938359,391.572941 L771.938359,391.572941 C768.212156,434.438883 761.692908,482.291785 750.726676,533.855912 L750.726676,533.855912 C741.755467,576.071101 731.111014,614.665268 719.9324,649.3678 L719.9324,649.3678 C731.213979,644.322856 742.489126,639.271466 753.777144,634.226519 L753.777144,634.226519 C749.394511,662.653477 731.149629,747.979445 665.583891,797.778161 L665.583891,797.778161 C617.793243,832.5258 558.392799,853.775142 493.773096,855.334374 L493.773096,855.334374 L493.657256,855.334374 C491.179555,855.360142 488.69542,855.405245 486.179106,855.405245 L486.179106,855.405245 C323.757827,855.405245 192.066464,731.220942 192.066464,578.04269 L192.066464,578.04269 C192.066464,462.736977 270.32317,349.518829 391.112654,332.831201 L391.112654,332.831201 C400.624448,346.155531 414.08769,360.008195 434.366216,360.001752 L434.366216,360.001752 C501.032435,359.988866 529.497025,350.478851 565.652138,360.001752 L565.652138,360.001752 C601.79438,369.524654 640.800457,408.576281 640.800457,408.576281 L640.800457,408.576281 L675.990231,373.332526 L687.406957,408.576281 C687.406957,408.576281 722.905646,341.374752 722.905646,272.800841 L722.905646,272.800841 C722.905646,272.800841 668.344761,317.187355 620.817968,234.283991 L620.817968,234.283991 C603.699313,182.861612 312.598524,119.996289 297.378367,0 L297.378367,0 C297.378367,0 247.914465,110.473388 363.973794,171.42511" id="path-3"></path>
        <path d="M363.973794,171.42511 L247.914465,118.095574 C247.914465,118.095574 255.418357,161.341659 291.232384,195.61895 L291.232384,195.61895 C17.0185685,245.488541 -1.71541766,557.914446 0.105852728,621.333876 L0.105852728,621.333876 C54.53159,941.955406 411.98969,945.228497 416.269353,945.228497 L416.269353,945.228497 C572.33871,945.228497 707.794893,849.335845 766.622568,713.682826 L766.622568,713.682826 L766.686925,713.579735 L766.693358,713.502419 C780.465507,681.705723 790.035222,647.731258 794.655974,612.287765 L794.655974,612.287765 L794.668846,612.274878 C817.399326,460.050205 771.938359,391.572941 771.938359,391.572941 L771.938359,391.572941 C768.212156,434.438883 761.692908,482.291785 750.726676,533.855912 L750.726676,533.855912 C741.755467,576.071101 731.111014,614.665268 719.9324,649.3678 L719.9324,649.3678 C731.213979,644.322856 742.489126,639.271466 753.777144,634.226519 L753.777144,634.226519 C749.394511,662.653477 731.149629,747.979445 665.583891,797.778161 L665.583891,797.778161 C617.793243,832.5258 558.392799,853.775142 493.773096,855.334374 L493.773096,855.334374 L493.657256,855.334374 C491.179555,855.360142 488.69542,855.405245 486.179106,855.405245 L486.179106,855.405245 C323.757827,855.405245 192.066464,731.220942 192.066464,578.04269 L192.066464,578.04269 C192.066464,462.736977 270.32317,349.518829 391.112654,332.831201 L391.112654,332.831201 C400.624448,346.155531 414.08769,360.008195 434.366216,360.001752 L434.366216,360.001752 C501.032435,359.988866 529.497025,350.478851 565.652138,360.001752 L565.652138,360.001752 C601.79438,369.524654 640.800457,408.576281 640.800457,408.576281 L640.800457,408.576281 L675.990231,373.332526 L687.406957,408.576281 C687.406957,408.576281 722.905646,341.374752 722.905646,272.800841 L722.905646,272.800841 C722.905646,272.800841 668.344761,317.187355 620.817968,234.283991 L620.817968,234.283991 C603.699313,182.861612 312.598524,119.996289 297.378367,0 L297.378367,0 C297.378367,0 247.914465,110.473388 363.973794,171.42511" id="path-5"></path>
        <path d="M72.3633215,168.873643 C73.9464756,169.724132 75.5167576,170.568178 77.0677338,171.42511 L77.0677338,171.42511 C143.264155,207.931714 220.658493,240.527355 260.816539,252.898106 L260.816539,252.898106 C284.364343,260.146594 303.33001,268.806119 318.517989,277.665381 L318.517989,277.665381 C349.63404,295.80915 372.808579,324.957734 384.045109,359.209251 L384.045109,359.209251 L389.084172,373.332526 L400.500899,408.576281 C400.500899,408.576281 435.999582,341.374752 435.999582,272.800841 L435.999582,272.800841 C435.999582,272.800841 381.438698,317.187355 333.911907,234.283991 L333.911907,234.283991 C316.793253,182.861612 25.6924635,119.996289 10.4723064,0 L10.4723064,0 C10.4723064,0 -37.633687,107.44513 72.3633215,168.873643" id="path-7"></path>
        <path d="M363.973794,171.42511 L247.914465,118.095574 C247.914465,118.095574 255.418357,161.341659 291.232384,195.61895 L291.232384,195.61895 C17.0185685,245.488541 -1.71541766,557.914446 0.105852728,621.333876 L0.105852728,621.333876 C54.53159,941.955406 411.98969,945.228497 416.269353,945.228497 L416.269353,945.228497 C572.33871,945.228497 707.794893,849.335845 766.622568,713.682826 L766.622568,713.682826 L766.686925,713.579735 L766.693358,713.502419 C780.465507,681.705723 790.035222,647.731258 794.655974,612.287765 L794.655974,612.287765 L794.668846,612.274878 C817.399326,460.050205 771.938359,391.572941 771.938359,391.572941 L771.938359,391.572941 C768.212156,434.438883 761.692908,482.291785 750.726676,533.855912 L750.726676,533.855912 C741.755467,576.071101 731.111014,614.665268 719.9324,649.3678 L719.9324,649.3678 C731.213979,644.322856 742.489126,639.271466 753.777144,634.226519 L753.777144,634.226519 C749.394511,662.653477 731.149629,747.979445 665.583891,797.778161 L665.583891,797.778161 C617.793243,832.5258 558.392799,853.775142 493.773096,855.334374 L493.773096,855.334374 L493.657256,855.334374 C491.179555,855.360142 488.69542,855.405245 486.179106,855.405245 L486.179106,855.405245 C323.757827,855.405245 192.066464,731.220942 192.066464,578.04269 L192.066464,578.04269 C192.066464,462.736977 270.32317,349.518829 391.112654,332.831201 L391.112654,332.831201 C400.624448,346.155531 414.08769,360.008195 434.366216,360.001752 L434.366216,360.001752 C501.032435,359.988866 529.497025,350.478851 565.652138,360.001752 L565.652138,360.001752 C601.79438,369.524654 640.800457,408.576281 640.800457,408.576281 L640.800457,408.576281 L675.990231,373.332526 L687.406957,408.576281 C687.406957,408.576281 722.905646,341.374752 722.905646,272.800841 L722.905646,272.800841 C722.905646,272.800841 668.344761,317.187355 620.817968,234.283991 L620.817968,234.283991 C603.699313,182.861612 312.598524,119.996289 297.378367,0 L297.378367,0 C297.378367,0 247.914465,110.473388 363.973794,171.42511 L363.973794,171.42511 Z" id="path-9"></path>
        <polygon id="path-11" points="0 0 82.9990883 0 82.9990883 230.13607 0 230.13607"></polygon>
    </defs>
    <g id="Artboard" stroke="none" stroke-width="1" fill="none" fill-rule="evenodd">
        <g id="icon" transform="translate(65.000000, 0.000000)">
            <g id="Group-25" transform="translate(0.680238, 0.000000)">
                <path d="M498.282201,984.294303 C497.632207,984.365174 497.020827,984.403832 496.40301,984.468265 C506.699945,983.321394 519.024089,986.716903 529.539834,986.877981 C542.217935,987.084161 554.915344,986.426968 567.496911,984.86129 C597.49317,981.124297 626.845871,972.174832 654.055522,959.030903 C654.055522,959.030903 653.650081,958.689419 652.99365,957.974239 C650.676842,955.551632 645.25808,948.857252 645.386788,940.049535 C600.614429,963.60551 550.938153,978.972297 498.282201,984.294303" id="Fill-7" fill="#781C6D" fill-rule="nonzero"></path>
                <path d="M144.350158,838.858723 C115.911311,804.478342 93.0585506,765.355839 77.1369144,722.812052 C77.8512647,733.907071 79.0161053,745.382232 80.7537129,757.224645 C80.8566825,757.914058 80.9532164,758.629245 81.0561854,759.305768 C81.7126148,763.577542 82.118057,767.572265 82.3175598,771.328594 C91.4947036,815.637787 109.63018,860.73949 149.363479,897.57469 C149.363479,897.57469 149.086748,896.691981 148.71992,895.152084 C148.681306,895.055439 148.649128,894.952348 148.649128,894.842813 C144.21501,886.859813 132.856205,862.376032 144.350158,838.858723" id="Fill-9" fill="#781C6D" fill-rule="nonzero"></path>
                <path d="M371.223814,977.159213 C354.652185,973.641277 338.485997,969.066677 322.731686,963.506284 C335.963248,976.682419 350.900239,988.866323 367.574839,998.704935 C368.051072,998.981987 368.565919,999.284813 369.07433,999.561871 C369.724323,999.729387 370.367882,999.864697 371.017876,1000 C371.017876,1000 370.947085,999.761606 370.844115,999.349245 C370.29709,996.720465 368.424335,986.37929 371.223814,977.159213" id="Fill-11" fill="#781C6D" fill-rule="nonzero"></path>
                <path d="M157.956914,305.648408 C211.977209,246.623172 283.206258,203.641254 363.689676,184.659882 L343.430457,182.237276 L342.677493,182.127743 C342.954223,182.269492 343.192339,182.404797 343.430457,182.540102 C343.430457,182.540102 180.056711,177.211659 87.9828051,306.949914 C87.9828051,306.949914 88.4590383,306.87904 89.3149706,306.814609 C89.3471486,306.77595 89.3471486,306.77595 89.3793265,306.77595 C89.8233823,306.672861 90.537732,306.473125 91.528812,306.196071 C100.493581,303.805681 130.573503,297.117744 157.956914,305.648408" id="Fill-13" fill="#781C6D" fill-rule="nonzero"></path>
                <path d="M53.1965406,541.186226 C56.7811611,503.21704 65.610783,466.755539 78.9453136,432.587781 C73.6616992,437.67783 68.8221393,442.587472 64.6197031,447.265162 C63.1202118,448.96614 61.6850764,450.641346 60.359346,452.284337 C58.4801554,454.603852 56.845517,456.349932 55.4811731,457.438816 C28.7155776,492.399075 4.23461453,533.71223 1.14357207e-14,582.293203 C0.379699479,581.777754 0.752963372,581.26875 1.12622727,580.721086 C15.4132246,561.159835 34.1729532,541.456836 53.1965406,541.186226" id="Fill-15" fill="#781C6D" fill-rule="nonzero"></path>
                <path d="M865.714167,507.832232 L858.178101,517.561312 L857.161276,518.895034 L852.283102,519.236519 L837.790172,520.222313 C841.574293,539.003948 843.55645,558.46211 843.55645,578.364845 C843.55645,654.812219 814.36464,724.384813 766.586864,776.619019 C738.244549,819.059723 702.68151,844.935206 667.865001,861.320013 C666.738772,861.829013 665.644719,862.344465 664.518496,862.827697 C657.568065,865.997703 650.675551,868.768232 643.853833,871.223058 C643.55136,871.326142 643.248888,871.46789 642.93998,871.564542 C593.900827,889.147761 550.280436,890.513697 535.690966,896.757058 C533.033069,897.8846 531.32764,899.179665 530.742001,900.790439 C522.150497,924.0758 554.032381,935.27391 554.032381,935.27391 C455.143192,944.352239 393.760588,898.296961 353.010468,864.908819 C352.97829,864.870161 352.946112,864.837942 352.907498,864.837942 C333.130947,848.588445 318.232569,835.373645 306.255947,832.989703 C305.541597,832.809297 304.865861,832.712645 304.177253,832.641774 C267.996398,829.194716 268.85233,859.380639 268.85233,859.380639 C216.305784,786.927981 198.228227,676.519026 164.634476,686.00971 C131.014983,695.5004 129.309554,726.569026 129.309554,726.569026 C103.464247,658.4268 128.453621,573.036401 170.638877,535.080101 C212.862746,497.149573 202.527197,447.093131 170.638877,448.839211 C138.795605,450.54019 125.866516,474.714699 125.866516,474.714699 C125.628399,473.554941 125.428897,472.395184 125.2487,471.228983 L125.866516,470.384937 C125.866516,470.384937 129.856579,378.64164 256.985112,328.836479 C267.1469,324.841757 278.126008,321.117646 289.961047,317.735019 C479.900885,263.387472 286.073954,180.593641 463.972814,278.683391 L463.464402,279.089306 C336.40666,311.285475 242.395643,426.507428 242.395643,563.719679 C242.395643,648.523755 278.299768,724.926032 335.756665,778.500406 C296.029803,735.892187 268.890944,681.467323 260.119242,621.076152 C260.0935,620.973063 260.0935,620.837757 260.054886,620.728225 C260.054886,620.631579 260.022708,620.560705 260.022708,620.457615 C258.040548,606.701597 257.01729,592.668526 257.01729,578.364845 C257.01729,571.264548 257.255407,564.235126 257.770254,557.270136 C257.802432,556.857777 257.841045,556.445419 257.873223,556.033061 C269.225594,404.317392 395.807104,284.759234 550.280436,284.759234 C556.117511,284.759234 561.915972,284.926755 567.67582,285.268239 L551.065577,184.755884 C520.927735,177.591157 489.48347,173.796171 457.15753,173.796171 C425.00535,173.796171 393.696232,177.552498 363.687102,184.659237 C283.203683,203.640609 211.974636,246.622527 157.95434,305.647763 C163.823593,307.458274 169.551263,309.98397 174.937847,313.398812 C205.494002,332.792543 125.19078,388.370721 78.9446704,432.58327 C65.6101391,466.757472 56.7805175,503.218973 53.195897,541.188159 C56.4394316,541.155944 59.715144,541.664948 62.952243,542.824706 C99.1717118,555.96863 70.5912816,623.569632 77.1362712,722.812697 C93.0579067,765.356484 115.910667,804.478987 144.349515,838.859368 C146.640582,834.117245 149.877681,829.400897 154.273186,824.85851 C185.273396,792.971606 230.077934,820.560961 252.486639,863.678187 C265.138998,888.020213 288.255617,929.191626 322.731043,963.507574 C338.485354,969.067968 354.651541,973.642568 371.223171,977.160503 C372.992957,971.258619 376.648369,965.82709 383.772561,963.127432 C384.216616,962.92769 384.622058,962.785942 385.098291,962.618426 C392.467035,960.29891 403.208026,960.672606 418.762833,965.859303 C441.91163,973.578135 467.962876,980.845955 496.401723,984.473419 C496.446772,984.473419 496.491821,984.473419 496.536871,984.473419 C549.83638,979.312497 600.117601,963.868387 645.391936,940.048245 C645.391936,940.048245 645.160257,933.502058 647.805284,928.547316 C650.830009,922.858058 657.362121,918.367213 662.581386,914.694652 C671.784269,908.225774 682.119819,903.509426 692.616253,899.540477 C702.115179,895.945226 710.880446,893.425974 721.885292,887.981555 C721.917474,887.968671 721.949649,887.936458 721.981825,887.917129 C793.114343,826.5466 842.726264,740.859819 857.98503,643.781635 C858.744432,638.917095 865.611202,638.672257 866.705249,643.465924 C866.730992,643.556127 866.750296,643.652774 866.776039,643.74942 C867.387423,638.826892 867.902268,633.846376 868.33989,628.76277 C871.512634,592.778059 871.036397,552.586003 865.714167,507.832232" id="Fill-17" fill="#451065" fill-rule="nonzero"></path>
                <path d="M767.910661,855.023168 C766.314641,856.472865 764.731485,857.929006 763.109716,859.340045" id="Stroke-19"></path>
                <path d="M783.565867,839.437955 C782.716371,840.327103 781.860436,841.248465 780.978758,842.137613 C779.78174,843.394019 778.558978,844.631097 777.323352,845.855284 C776.885729,846.299858 776.441674,846.78309 775.959004,847.259877 C778.558978,844.7664 781.075297,842.137613 783.565867,839.437955" id="Fill-21" fill="#FFFFFF" fill-rule="nonzero"></path>
                <path d="M836.967703,391.572941 C833.247933,434.438883 826.722252,482.291785 815.756014,533.855912 C806.791243,576.071101 796.140352,614.665268 784.961744,649.3678 C796.243323,644.322856 807.524903,639.265023 818.806482,634.226519 C814.423848,662.647032 796.178966,747.979445 730.619667,797.778161 C682.82902,832.5258 623.42214,853.768697 558.796001,855.334374 L558.693031,855.334374 C556.208896,855.360142 553.72476,855.3988 551.208447,855.3988 C388.787168,855.3988 257.095805,731.220942 257.095805,578.036246 C257.095805,462.736977 335.358947,349.518829 456.141995,332.831201 C465.653788,346.149088 479.123466,360.008195 499.395557,360.001752 C566.061776,359.988866 594.526366,350.478851 630.675043,360.001752 C666.830156,369.524654 705.8298,408.576281 705.8298,408.576281 L741.026007,373.332526 L752.436301,408.576281 C752.436301,408.576281 787.934983,341.374752 787.934983,272.800841 C787.934983,272.800841 733.374098,317.187355 685.853744,234.283991 C668.72222,182.85517 377.6343,119.996289 362.414143,0 C362.414143,0 312.943806,110.473388 429.003135,171.42511 L312.943806,118.095574 C312.943806,118.095574 320.447698,161.341659 356.26816,195.625393 C259.193805,213.279486 194.181531,263.851375 150.72203,324.609806 C152.15073,327.135501 153.116067,330.086441 153.424975,333.475511 C155.568025,357.121687 137.953831,382.243333 119.084697,394.949125 C115.455028,397.397503 111.703082,399.601043 107.918958,401.733709 C68.5331815,494.527231 64.2213402,589.43409 65.1351931,621.333876 C119.56093,941.955406 477.01903,945.234942 481.292258,945.234942 C637.368051,945.234942 772.82423,849.335845 831.651906,713.682826 L831.716263,713.586181 L831.729134,713.502419 C845.494851,681.705723 855.070999,647.731258 859.685312,612.287765 L859.698183,612.274878 C882.42867,460.050205 836.967703,391.572941 836.967703,391.572941" id="Fill-23" fill="#451065" fill-rule="nonzero"></path>
            </g>
            <g id="Group-35" transform="translate(65.710866, 0.000000)">
                <g id="Fill-26-Clipped">
                    <mask id="mask-2" fill="white">
                        <use xlink:href="#path-1"></use>
                    </mask>
                    <g id="path-1"></g>
                    <path d="M256.650128,109.750472 L651.138581,292.244828 L682.029383,373.331237 C666.725565,353.164335 641.916387,325.587868 604.815244,303.713545 C537.338141,263.933847 482.854484,274.635836 423.711463,259.217499 C373.082721,246.02203 293.152762,210.365917 256.650128,109.750472" id="Fill-26" fill="#8A267E" fill-rule="nonzero" mask="url(#mask-2)"></path>
                </g>
                <g id="Fill-29-Clipped">
                    <mask id="mask-4" fill="white">
                        <use xlink:href="#path-3"></use>
                    </mask>
                    <g id="path-3"></g>
                    <path d="M280.048625,93.5860232 L674.53708,276.080379 L705.427882,357.173232 C690.124064,336.999886 665.314887,309.42342 628.213741,287.549096 C560.736639,247.769399 506.252981,258.471388 447.109961,243.05305 C396.481218,229.857582 316.551261,194.201468 280.048625,93.5860232" id="Fill-29" fill="#781C6D" fill-rule="nonzero" mask="url(#mask-4)"></path>
                </g>
                <g id="Fill-32-Clipped">
                    <mask id="mask-6" fill="white">
                        <use xlink:href="#path-5"></use>
                    </mask>
                    <g id="path-5"></g>
                    <path d="M306.255612,-29.6195736 C306.255612,-29.6195736 311.777344,53.3095626 402.377501,95.4732071 C492.971222,137.643295 634.000619,184.310666 650.205418,231.809197 C666.403785,279.307728 739.956077,235.249812 739.956077,235.249812 C739.956077,235.249812 716.183029,400.470217 692.319887,424.367674 L675.992805,373.331881 L670.953747,359.21505 C659.717215,324.957089 636.536239,295.808506 605.420189,277.658294 C590.238645,268.805475 571.272978,260.145949 547.725174,252.897462 C507.567128,240.52671 430.166354,207.931069 363.976369,171.424466 C353.956164,165.909173 343.022106,160.632274 334.250404,154.079642 C268.877738,105.22806 235.206761,41.512247 306.255612,-29.6195736" id="Fill-32" fill="#C0177B" fill-rule="nonzero" mask="url(#mask-6)"></path>
                </g>
            </g>
            <g id="Fill-36-Clipped" transform="translate(352.616931, 0.000000)">
                <mask id="mask-8" fill="white">
                    <use xlink:href="#path-7"></use>
                </mask>
                <g id="path-7"></g>
                <path d="M402.053162,411.575544 C402.053162,411.575544 425.916309,385.345685 413.283257,333.336985 C400.650204,281.334726 308.930256,260.723251 290.678938,242.45062 C272.427621,224.177989 290.678938,216.678221 290.678938,216.678221 C290.678938,216.678221 -80.4161649,80.8125781 27.6887818,-27.4121677 C135.787293,-135.636914 408.611022,159.057581 408.611022,159.057581 L514.128864,234.950852 L514.128864,320.218834 C514.128864,326.777909 402.053162,411.575544 402.053162,411.575544" id="Fill-36" fill="#E84A86" fill-rule="nonzero" mask="url(#mask-8)"></path>
            </g>
            <g id="Fill-39-Clipped" transform="translate(65.710866, 0.000000)">
                <mask id="mask-10" fill="white">
                    <use xlink:href="#path-9"></use>
                </mask>
                <g id="path-9"></g>
                <path d="M345.943861,819.649265 C345.943861,819.649265 635.146153,985.50109 782.553216,669.254432 C929.960276,353.014211 767.107812,371.286842 767.107812,371.286842 L614.088921,546.977285 L345.943861,819.649265 Z" id="Fill-39" fill="#2B0042" fill-rule="nonzero" mask="url(#mask-10)"></path>
            </g>
            <g id="Group-61" transform="translate(0.000000, 233.130019)">
                <path d="M631.357215,126.869156 C631.357215,126.869156 544.341679,124.272587 415.12158,144.974266 C415.12158,144.974266 456.470209,88.0494807 515.922138,67.3478013 C575.361195,46.6461221 631.357215,126.869156 631.357215,126.869156" id="Fill-42" fill="#451065" fill-rule="nonzero"></path>
                <path d="M415.124154,144.971689 C415.124154,144.971689 645.138376,102.704956 707.170973,111.763954 C707.170973,111.763954 602.760053,88.3175136 540.901215,82.8666516 C467.458326,76.3977794 415.124154,144.971689 415.124154,144.971689" id="Fill-44" fill="#781C6D" fill-rule="nonzero"></path>
                <path d="M707.170328,111.762021 L415.12351,144.969756 C415.12351,144.969756 445.493033,70.7967929 707.170328,111.762021" id="Fill-46" fill="#C0177B" fill-rule="nonzero"></path>
                <path d="M555.977859,128.800797 L707.169044,111.758799 C707.169044,111.758799 681.941554,136.706481 706.512613,175.442396 C706.512613,175.442396 638.681554,128.150045 555.977859,128.800797" id="Fill-48" fill="#310C4A" fill-rule="nonzero"></path>
                <path d="M336.438838,545.3691 C278.975504,491.801169 243.071379,415.39245 243.071379,330.588372 C243.071379,193.37612 337.088831,78.1541684 464.146574,45.9579991 L464.654985,45.5520838 C286.74969,-52.537666 480.576621,30.2561651 290.643219,84.603711 C278.808179,87.9863381 267.829072,91.7104503 257.667285,95.7051716 C130.53875,145.510332 126.548688,237.253629 126.548688,237.253629 L125.930872,238.104118 C126.104633,239.263876 126.310571,240.423634 126.548688,241.589836 C126.548688,241.589836 139.477777,217.415325 171.321049,215.707904 C203.20937,213.961824 213.538483,264.018265 171.321049,301.948793 C129.135793,339.905094 104.139983,425.295494 129.991726,493.437716 C129.991726,493.437716 131.697156,462.36909 165.316648,452.884846 C198.910399,443.387717 216.98152,553.803117 269.534502,626.24933 C269.534502,626.24933 268.678569,596.063408 304.859425,599.510466 C305.541597,599.581341 306.223769,599.68443 306.938119,599.858394 C318.908306,602.242341 333.813119,615.457138 353.58967,631.706636 C353.628283,631.706636 353.660461,631.738851 353.692639,631.77751 C394.44276,665.165652 455.825363,711.220929 554.714554,702.1426 C554.714554,702.1426 522.832668,690.944497 531.424174,667.659129 C532.009812,666.048355 533.708806,664.753297 536.366703,663.625748 C553.935848,656.190413 575.559412,655.874703 594.10033,652.060387 C653.442854,639.831385 709.20719,613.891465 749.242963,567.275639 C755.723597,559.730769 761.740865,551.767097 767.262598,543.487715 C787.322316,513.443541 804.460279,475.074882 814.480483,425.875373 C814.345336,426.313503 814.171575,426.732305 814.004246,427.170436 C811.71318,433.143189 809.512208,439.122386 806.777088,444.908289 C803.938996,450.919701 801.030114,456.898898 798.056868,462.839436 C795.373233,468.23231 792.599498,473.580083 789.54903,478.786108 C782.180286,491.382367 773.865507,503.424521 764.701239,514.790148 C746.449918,537.437644 724.832795,557.359708 700.776575,573.699409 C652.747809,606.333709 594.602305,624.193981 536.34096,624.193981 C459.101076,624.193981 388.818059,594.291556 336.438838,545.3691" id="Fill-50" fill="#53009C" fill-rule="nonzero"></path>
                <path d="M722.662069,654.788394 C724.3675,653.899245 726.105106,652.945671 727.881327,651.921219 C796.491094,613.288391 839.274859,538.464674 857.802907,463.93734 C861.966732,447.191724 867.456284,427.984844 867.456284,410.62069 C865.306797,401.22665 863.39543,392.625112 861.825146,385.383068 C851.772761,492.821756 799.901956,588.140973 722.662069,654.788394" id="Fill-52" fill="#781C6D" fill-rule="nonzero"></path>
                <path d="M323.41064,730.374974 C288.935215,696.065471 265.818596,654.887619 253.166237,630.552032 C230.763968,587.428366 185.952993,559.839013 154.952784,591.725914 C150.557279,596.274742 147.32018,600.984648 145.029112,605.726769 C133.535159,629.250526 144.893965,653.727865 149.328082,661.717303 C147.448892,653.901826 143.497443,631.228557 157.205238,619.830714 C159.830957,617.678719 163.068055,615.900423 167.128909,614.740666 C167.605142,614.566702 168.113554,614.431397 168.589787,614.328307 C172.920935,613.239423 178.037224,612.827065 184.144594,613.239423 C216.573504,615.384976 236.665398,666.942658 276.559586,710.472239 C299.23215,735.258845 328.320991,757.410219 369.753284,766.430561 C369.244873,766.15351 368.730026,765.850684 368.253793,765.573632 C351.579193,755.741458 336.642202,743.551116 323.41064,730.374974" id="Fill-54" fill="#310C4A" fill-rule="nonzero"></path>
                <g id="Fill-56-Clipped" transform="translate(0.000000, 308.056703)">
                    <mask id="mask-12" fill="white">
                        <use xlink:href="#path-11"></use>
                    </mask>
                    <g id="path-11"></g>
                    <path d="M81.4352413,216.038568 C79.691198,204.196151 78.5327926,192.72099 77.8184429,181.625973 C71.2734534,82.3829077 99.8474485,14.781906 63.6279794,1.63798264 C60.3908804,0.478224695 57.1216035,-0.0307801812 53.878069,-0.00131382378 C34.8544815,0.272045505 16.094753,19.9686013 1.80775566,39.5298519 C1.42805618,40.0775154 1.06122787,40.5929634 0.681528391,41.1084114 C0.237473065,45.9858379 -0.00064355844,50.9341385 -0.00064355844,55.9533131 C-0.00064355844,55.9533131 0.411233843,55.6182719 1.22855306,55.0706085 C3.41021617,53.5307076 8.42353644,50.2253975 14.8012005,47.7963489 C15.8888143,47.351775 17.0150416,46.9458597 18.1734468,46.5657168 C18.4115634,46.5012858 18.64968,46.4304117 18.8556187,46.3595376 C19.7437294,46.0889275 20.6704535,45.8505328 21.5843065,45.6443535 C31.4114439,43.3570532 42.9375755,44.1753268 52.3785779,54.6904655 C57.2567508,60.1606572 61.5492856,68.2467471 64.7928204,79.8507697 C71.3378093,103.445401 71.8526561,137.142812 75.2249023,174.525677 C76.8273629,192.45038 79.118431,211.225573 82.9990883,230.13607 C82.7995854,226.379743 82.3877076,222.391465 81.7377138,218.11969 C81.6347442,217.443164 81.538211,216.721537 81.4352413,216.038568" id="Fill-56" fill="#310C4A" fill-rule="nonzero" mask="url(#mask-12)"></path>
                </g>
                <path d="M61.0408744,219.155606 C62.3666048,217.512616 63.8017402,215.83741 65.3012315,214.136432 C69.4972321,209.458741 74.336792,204.542656 79.6268421,199.452608 C125.866516,155.240057 206.176174,99.6618794 175.620019,80.2681491 C170.233435,76.8533065 164.499329,74.3276116 158.636512,72.5171 C131.2531,63.9864363 101.173179,70.6743736 92.2084094,73.0647639 C91.2173295,73.3418168 90.5029798,73.5415529 90.0589246,73.6446426 C96.9449997,73.0325484 126.95413,72.2464903 132.212002,104.474875 C132.720414,107.586892 132.997143,111.03395 132.997143,114.790277 C132.997143,134.757443 109.732506,160.123927 82.6901801,191.843306 C74.0343195,202.016961 64.9923233,212.809153 56.1627015,224.310086 C57.5270454,223.221202 59.1616838,221.475122 61.0408744,219.155606" id="Fill-59" fill="#310C4A" fill-rule="nonzero"></path>
            </g>
        </g>
    </g>
</svg>