<svg width="265" height="265" viewBox="0 0 265 265" fill="none" xmlns="http://www.w3.org/2000/svg">
<mask id="mask0_108_31" style="mask-type:alpha" maskUnits="userSpaceOnUse" x="0" y="0" width="265" height="265">
<circle cx="132.5" cy="132.5" r="132.5" fill="#092C7B"/>
</mask>
<g mask="url(#mask0_108_31)">
<path d="M96.9484 260.586C168.799 279.838 242.421 238.064 261.387 167.28C280.354 96.4965 237.483 23.5079 165.632 4.25556C93.7814 -14.9967 20.1596 26.7777 1.1932 97.5614C-17.7732 168.345 25.0978 241.334 96.9484 260.586Z" fill="url(#paint0_radial_108_31)"/>
<path d="M96.9484 260.586C168.799 279.838 242.421 238.064 261.387 167.28C280.354 96.4965 237.483 23.5079 165.632 4.25556C93.7814 -14.9967 20.1596 26.7777 1.1932 97.5614C-17.7732 168.345 25.0978 241.334 96.9484 260.586Z" fill="url(#paint1_linear_108_31)"/>
<path d="M96.9484 260.586C168.799 279.838 242.421 238.064 261.387 167.28C280.354 96.4965 237.483 23.5079 165.632 4.25556C93.7814 -14.9967 20.1596 26.7777 1.1932 97.5614C-17.7732 168.345 25.0978 241.334 96.9484 260.586Z" fill="url(#paint2_radial_108_31)"/>
<path d="M96.9484 260.586C168.799 279.838 242.421 238.064 261.387 167.28C280.354 96.4965 237.483 23.5079 165.632 4.25556C93.7814 -14.9967 20.1596 26.7777 1.1932 97.5614C-17.7732 168.345 25.0978 241.334 96.9484 260.586Z" fill="url(#paint3_radial_108_31)"/>
<g filter="url(#filter0_f_108_31)">
<path d="M191.639 21.7581C191.639 21.7581 206.3 51.5092 208.21 71.6533C212.709 119.09 184.829 154.188 160.763 182.38C190.914 198.939 218.184 141.887 222.618 111.97C225.882 89.9428 225.86 51.8403 191.639 21.7581Z" fill="#12235F" fill-opacity="0.3"/>
</g>
<g filter="url(#filter1_f_108_31)">
<path d="M104.101 256.381C104.101 256.381 78.6998 229.199 69.502 208.025C47.8424 158.163 62.9642 110.486 76.7794 71.6133C40.6935 64.0833 34.1273 135.345 40.5303 169.304C45.2447 194.307 59.0577 235.599 104.101 256.381Z" fill="#12235F" fill-opacity="0.3"/>
</g>
<path d="M75.5402 70.9719C75.5402 70.9719 66.5834 62.2208 62.7695 62.9681C56.7322 64.159 45.1812 71.4629 41.2606 76.3622C35.2983 83.8129 28.3135 94.0645 24.7694 103.009C16.1723 124.702 14.1633 160.152 20.722 182.546C26.814 206.566 36.7833 216.593 53.3856 233.288C70.2771 250.273 86.2188 257.543 98.7675 261.051C79.7614 251.735 75.3598 246.552 64.1829 233.289C55.064 222.469 51.054 215.249 45.4654 202.243C39.8274 189.122 37.5246 181.15 35.7938 166.998C33.1889 145.701 36.4003 129.059 41.2659 112.462C43.5801 104.575 50.4808 89.3805 62.0813 79.6466C66.8727 75.6262 75.5402 70.9719 75.5402 70.9719Z" fill="url(#paint4_linear_108_31)"/>
<path d="M144.222 199.544C144.222 199.544 149.588 212.944 153.418 213.712C159.484 214.92 172.626 210.585 178.135 207.543C186.514 202.916 197.285 198.067 203.983 191.129C220.231 174.3 235.589 142.187 238.013 118.902C241.49 94.2865 237.471 80.4562 227.611 58.7535C219.089 39.994 207.209 21.5999 195.864 16.7051C210.577 31.9944 213.716 38.3579 219.14 55.0192C223.579 68.6526 223.973 77.1093 223.762 91.4274C223.551 105.724 221.861 113.759 218.085 127.549C212.402 148.302 203.083 162.509 192.244 176.04C187.091 182.469 181.195 188.468 174.037 192.393C169.995 194.61 165.817 196.64 160.167 198.062C154.077 199.595 144.222 199.544 144.222 199.544Z" fill="url(#paint5_linear_108_31)"/>
<path d="M50.313 29.1644C47.4073 31.4281 42.5641 34.8703 35.799 42.1559C12.3809 66.6143 -4.20338 105.983 0.413026 146.235C2.74148 166.541 9.39661 186.326 20.1873 203.478C25.5885 212.07 32.7016 220.41 42.0439 229.498C60.8342 247.777 89.0198 259.268 100.328 261.242C91.4094 258.134 68.8305 248.422 53.9141 232.876C49.86 228.651 47.5448 226.019 44.2209 221.393C37.5389 212.122 32.5395 201.598 29.0829 190.618C21.6991 167.163 21.6577 141.997 26.5832 118.134C29.7343 102.869 35.6659 86.5424 46.0417 74.9411C49.5467 71.0209 53.9179 67.5193 59.0566 66.8659C79.7158 64.2344 83.2847 93.8573 85.9174 108.61C91.2677 138.532 101.164 167.415 115.237 194.183C126.51 215.609 142.399 237.016 165.248 242.846C182.841 247.334 203.957 238.302 215.856 231.059C227.826 223.773 244.51 207.121 252.284 189.339C258.762 174.523 262.172 161.846 263.733 150.918C266.855 128.541 263.733 111.888 260.61 98.8784C250.723 58.8079 221.06 29.1453 195.561 16.1357C208.839 23.0102 230.758 54.2819 235.851 81.3372C240.944 108.393 236.264 137.232 222.93 160.954C217.152 171.233 208.861 181.184 197.567 183.441C185.354 185.884 173.046 178.529 164.511 169.081C149.464 152.414 142.704 129.647 137.686 107.474C132.667 85.3006 128.752 62.3745 117.87 42.5468C112.188 32.1973 104.159 22.5239 93.3413 18.5242C78.719 13.115 63.0033 19.2962 50.313 29.1644Z" fill="url(#paint6_radial_108_31)"/>
<path d="M50.313 29.1644C47.4073 31.4281 42.5641 34.8703 35.799 42.1559C12.3809 66.6143 -4.20338 105.983 0.413026 146.235C2.74148 166.541 9.39661 186.326 20.1873 203.478C25.5885 212.07 32.7016 220.41 42.0439 229.498C60.8342 247.777 89.0198 259.268 100.328 261.242C91.4094 258.134 68.8305 248.422 53.9141 232.876C49.86 228.651 47.5448 226.019 44.2209 221.393C37.5389 212.122 32.5395 201.598 29.0829 190.618C21.6991 167.163 21.6577 141.997 26.5832 118.134C29.7343 102.869 35.6659 86.5424 46.0417 74.9411C49.5467 71.0209 53.9179 67.5193 59.0566 66.8659C79.7158 64.2344 83.2847 93.8573 85.9174 108.61C91.2677 138.532 101.164 167.415 115.237 194.183C126.51 215.609 142.399 237.016 165.248 242.846C182.841 247.334 203.957 238.302 215.856 231.059C227.826 223.773 244.51 207.121 252.284 189.339C258.762 174.523 262.172 161.846 263.733 150.918C266.855 128.541 263.733 111.888 260.61 98.8784C250.723 58.8079 221.06 29.1453 195.561 16.1357C208.839 23.0102 230.758 54.2819 235.851 81.3372C240.944 108.393 236.264 137.232 222.93 160.954C217.152 171.233 208.861 181.184 197.567 183.441C185.354 185.884 173.046 178.529 164.511 169.081C149.464 152.414 142.704 129.647 137.686 107.474C132.667 85.3006 128.752 62.3745 117.87 42.5468C112.188 32.1973 104.159 22.5239 93.3413 18.5242C78.719 13.115 63.0033 19.2962 50.313 29.1644Z" fill="url(#paint7_linear_108_31)"/>
<path d="M50.313 29.1644C47.4073 31.4281 42.5641 34.8703 35.799 42.1559C12.3809 66.6143 -4.20338 105.983 0.413026 146.235C2.74148 166.541 9.39661 186.326 20.1873 203.478C25.5885 212.07 32.7016 220.41 42.0439 229.498C60.8342 247.777 89.0198 259.268 100.328 261.242C91.4094 258.134 68.8305 248.422 53.9141 232.876C49.86 228.651 47.5448 226.019 44.2209 221.393C37.5389 212.122 32.5395 201.598 29.0829 190.618C21.6991 167.163 21.6577 141.997 26.5832 118.134C29.7343 102.869 35.6659 86.5424 46.0417 74.9411C49.5467 71.0209 53.9179 67.5193 59.0566 66.8659C79.7158 64.2344 83.2847 93.8573 85.9174 108.61C91.2677 138.532 101.164 167.415 115.237 194.183C126.51 215.609 142.399 237.016 165.248 242.846C182.841 247.334 203.957 238.302 215.856 231.059C227.826 223.773 244.51 207.121 252.284 189.339C258.762 174.523 262.172 161.846 263.733 150.918C266.855 128.541 263.733 111.888 260.61 98.8784C250.723 58.8079 221.06 29.1453 195.561 16.1357C208.839 23.0102 230.758 54.2819 235.851 81.3372C240.944 108.393 236.264 137.232 222.93 160.954C217.152 171.233 208.861 181.184 197.567 183.441C185.354 185.884 173.046 178.529 164.511 169.081C149.464 152.414 142.704 129.647 137.686 107.474C132.667 85.3006 128.752 62.3745 117.87 42.5468C112.188 32.1973 104.159 22.5239 93.3413 18.5242C78.719 13.115 63.0033 19.2962 50.313 29.1644Z" fill="url(#paint8_linear_108_31)" fill-opacity="0.37"/>
<path d="M50.313 29.1644C47.4073 31.4281 42.5641 34.8703 35.799 42.1559C12.3809 66.6143 -4.20338 105.983 0.413026 146.235C2.74148 166.541 9.39661 186.326 20.1873 203.478C25.5885 212.07 32.7016 220.41 42.0439 229.498C60.8342 247.777 89.0198 259.268 100.328 261.242C91.4094 258.134 68.8305 248.422 53.9141 232.876C49.86 228.651 47.5448 226.019 44.2209 221.393C37.5389 212.122 32.5395 201.598 29.0829 190.618C21.6991 167.163 21.6577 141.997 26.5832 118.134C29.7343 102.869 35.6659 86.5424 46.0417 74.9411C49.5467 71.0209 53.9179 67.5193 59.0566 66.8659C79.7158 64.2344 83.2847 93.8573 85.9174 108.61C91.2677 138.532 101.164 167.415 115.237 194.183C126.51 215.609 142.399 237.016 165.248 242.846C182.841 247.334 203.957 238.302 215.856 231.059C227.826 223.773 244.51 207.121 252.284 189.339C258.762 174.523 262.172 161.846 263.733 150.918C266.855 128.541 263.733 111.888 260.61 98.8784C250.723 58.8079 221.06 29.1453 195.561 16.1357C208.839 23.0102 230.758 54.2819 235.851 81.3372C240.944 108.393 236.264 137.232 222.93 160.954C217.152 171.233 208.861 181.184 197.567 183.441C185.354 185.884 173.046 178.529 164.511 169.081C149.464 152.414 142.704 129.647 137.686 107.474C132.667 85.3006 128.752 62.3745 117.87 42.5468C112.188 32.1973 104.159 22.5239 93.3413 18.5242C78.719 13.115 63.0033 19.2962 50.313 29.1644Z" fill="white" fill-opacity="0.2"/>
</g>
<defs>
<filter id="filter0_f_108_31" x="124.222" y="-14.7826" width="136.292" height="236.66" filterUnits="userSpaceOnUse" color-interpolation-filters="sRGB">
<feFlood flood-opacity="0" result="BackgroundImageFix"/>
<feBlend mode="normal" in="SourceGraphic" in2="BackgroundImageFix" result="shape"/>
<feGaussianBlur stdDeviation="18.2703" result="effect1_foregroundBlur_108_31"/>
</filter>
<filter id="filter1_f_108_31" x="1.82253" y="34.5195" width="138.819" height="258.402" filterUnits="userSpaceOnUse" color-interpolation-filters="sRGB">
<feFlood flood-opacity="0" result="BackgroundImageFix"/>
<feBlend mode="normal" in="SourceGraphic" in2="BackgroundImageFix" result="shape"/>
<feGaussianBlur stdDeviation="18.2703" result="effect1_foregroundBlur_108_31"/>
</filter>
<radialGradient id="paint0_radial_108_31" cx="0" cy="0" r="1" gradientUnits="userSpaceOnUse" gradientTransform="translate(175.174 48.4036) rotate(126.216) scale(146.913 156.285)">
<stop stop-color="#F4F6FC"/>
<stop offset="1" stop-color="#062677"/>
</radialGradient>
<linearGradient id="paint1_linear_108_31" x1="93.7195" y1="-9.29717" x2="144.44" y2="192.43" gradientUnits="userSpaceOnUse">
<stop stop-color="#0669FF"/>
<stop offset="1" stop-opacity="0"/>
</linearGradient>
<radialGradient id="paint2_radial_108_31" cx="0" cy="0" r="1" gradientUnits="userSpaceOnUse" gradientTransform="translate(186.124 62.4895) rotate(133.516) scale(203.828 209.63)">
<stop stop-color="#4FB4FF" stop-opacity="0"/>
<stop offset="1" stop-color="#052272"/>
</radialGradient>
<radialGradient id="paint3_radial_108_31" cx="0" cy="0" r="1" gradientUnits="userSpaceOnUse" gradientTransform="translate(189.957 61.8055) rotate(135.218) scale(110.084 112.921)">
<stop stop-color="white" stop-opacity="0.81"/>
<stop offset="1" stop-color="white" stop-opacity="0"/>
</radialGradient>
<linearGradient id="paint4_linear_108_31" x1="56.7681" y1="96.3417" x2="57.9113" y2="206.807" gradientUnits="userSpaceOnUse">
<stop stop-color="#021B68"/>
<stop offset="1" stop-color="#2273B1"/>
</linearGradient>
<linearGradient id="paint5_linear_108_31" x1="171.697" y1="185.054" x2="212.839" y2="82.2171" gradientUnits="userSpaceOnUse">
<stop stop-color="#08194B"/>
<stop offset="1" stop-color="#2173B0"/>
</linearGradient>
<radialGradient id="paint6_radial_108_31" cx="0" cy="0" r="1" gradientUnits="userSpaceOnUse" gradientTransform="translate(198.26 79.4303) rotate(119.053) scale(196.456 223.116)">
<stop stop-color="#A6D8FC"/>
<stop offset="1" stop-color="#1D7FC8"/>
</radialGradient>
<linearGradient id="paint7_linear_108_31" x1="25.2085" y1="237.787" x2="162.472" y2="140.309" gradientUnits="userSpaceOnUse">
<stop stop-color="#3898F0"/>
<stop offset="1" stop-color="white" stop-opacity="0"/>
</linearGradient>
<linearGradient id="paint8_linear_108_31" x1="79.9492" y1="220.173" x2="162.576" y2="95.1036" gradientUnits="userSpaceOnUse">
<stop stop-color="#103855"/>
<stop offset="1" stop-color="#0024A4" stop-opacity="0"/>
</linearGradient>
</defs>
</svg>
