<svg version="1.1" id="Layer_1" xmlns="http://www.w3.org/2000/svg" xmlns:xlink="http://www.w3.org/1999/xlink" x="0px" y="0px"
	  width="150px" height="150px" viewBox="0 0 120 120" xml:space="preserve">
<path opacity="0.000000" stroke="none" 
	d="
M74.000000,121.000000 
	C49.333332,121.000000 25.166666,121.000000 1.000000,121.000000 
	C1.000000,81.000000 1.000000,41.000000 1.000000,1.000000 
	C41.000000,1.000000 81.000000,1.000000 121.000000,1.000000 
	C121.000000,41.000000 121.000000,81.000000 121.000000,121.000000 
	C105.500000,121.000000 90.000000,121.000000 74.000000,121.000000 
M104.452286,98.034645 
	C105.299545,97.030640 106.244720,96.093193 106.979195,95.012535 
	C116.167587,81.493492 119.773788,66.764099 117.043472,50.481976 
	C114.367729,34.525261 106.419136,22.034115 92.810150,13.460577 
	C79.931473,5.347123 65.906052,2.363706 50.633991,4.904122 
	C38.117702,6.986133 27.616644,12.627481 19.164459,21.725784 
	C10.946688,30.571751 6.395497,41.263866 4.729074,53.413044 
	C2.574457,69.121445 5.507586,83.299919 15.375658,95.790215 
	C18.736286,100.043861 20.301201,99.663513 23.074125,94.593872 
	C26.830017,87.727127 27.836082,80.740631 25.585245,72.960159 
	C21.225981,57.891491 24.700758,43.977444 35.661098,33.150455 
	C50.452354,18.539165 71.935135,19.708271 86.553795,33.098061 
	C101.631355,46.908169 102.473595,73.149040 85.792938,89.078400 
	C74.698700,99.672958 61.806469,101.191483 47.746464,96.896729 
	C37.594452,93.795715 26.851492,96.446953 22.034765,103.623222 
	C24.285736,105.198311 26.499613,106.848137 28.810804,108.348015 
	C41.868248,116.821808 56.023476,119.675247 71.419090,117.050179 
	C84.567291,114.808311 95.352859,108.684074 104.452286,98.034645 
z"/>
<path fill="#0057FF" opacity="1.000000" stroke="none" 
	d="
M104.202370,98.303429 
	C95.352859,108.684074 84.567291,114.808311 71.419090,117.050179 
	C56.023476,119.675247 41.868248,116.821808 28.810804,108.348015 
	C26.499613,106.848137 24.285736,105.198311 22.034765,103.623222 
	C26.851492,96.446953 37.594452,93.795715 47.746464,96.896729 
	C61.806469,101.191483 74.698700,99.672958 85.792938,89.078400 
	C102.473595,73.149040 101.631355,46.908169 86.553795,33.098061 
	C71.935135,19.708271 50.452354,18.539165 35.661098,33.150455 
	C24.700758,43.977444 21.225981,57.891491 25.585245,72.960159 
	C27.836082,80.740631 26.830017,87.727127 23.074125,94.593872 
	C20.301201,99.663513 18.736286,100.043861 15.375658,95.790215 
	C5.507586,83.299919 2.574457,69.121445 4.729074,53.413044 
	C6.395497,41.263866 10.946688,30.571751 19.164459,21.725784 
	C27.616644,12.627481 38.117702,6.986133 50.633991,4.904122 
	C65.906052,2.363706 79.931473,5.347123 92.810150,13.460577 
	C106.419136,22.034115 114.367729,34.525261 117.043472,50.481976 
	C119.773788,66.764099 116.167587,81.493492 106.979195,95.012535 
	C106.244720,96.093193 105.299545,97.030640 104.202370,98.303429 
z"/>
</svg>
