<svg width="40" height="42" viewBox="0 0 40 42" fill="none" xmlns="http://www.w3.org/2000/svg">
<circle cx="20" cy="21" r="20" fill="#F8D07A"/>
<rect y="0.5" width="40" height="41" rx="20" fill="#D4C8FA"/>
<path d="M11.0018 21.2106C11.018 20.9962 11.0306 20.7801 11.0522 20.5657C11.1369 19.7011 11.3495 18.867 11.6809 18.0655C12.1853 16.8441 12.9292 15.7886 13.8947 14.8897C13.9452 14.8429 13.9974 14.7978 14.0497 14.751C14.1073 14.6988 14.1722 14.6789 14.2478 14.7096C14.3235 14.7402 14.3559 14.7996 14.3595 14.8771C14.3793 15.2968 14.4261 15.7129 14.5054 16.1254C14.7936 17.6205 15.4223 18.9643 16.3356 20.1766C17.3137 21.4754 18.526 22.5021 19.9472 23.2875C21.0749 23.9126 22.2728 24.3467 23.5409 24.5863C24.1299 24.698 24.7262 24.7592 25.326 24.7754C26.2897 24.8025 27.2408 24.7034 28.1775 24.4746C28.2568 24.4548 28.3343 24.453 28.3919 24.5232C28.4477 24.5917 28.4423 24.6637 28.4117 24.743C28.0424 25.6977 27.5255 26.5624 26.8608 27.3387C26.0538 28.2826 25.0919 29.032 23.9768 29.5796C23.0654 30.0281 22.1052 30.3109 21.0965 30.4316C19.7509 30.5919 18.4341 30.4641 17.1516 30.0317C15.6781 29.5346 14.4171 28.7077 13.3688 27.5621C12.3366 26.4363 11.6341 25.1321 11.263 23.6514C11.1153 23.0624 11.0306 22.4643 11.009 21.8573C11.009 21.8338 11.0036 21.8104 11 21.787C11.0018 21.5943 11.0018 21.4033 11.0018 21.2106Z" fill="#1A1B2A"/>
<path d="M20.2882 12.5C20.5025 12.5162 20.7187 12.5288 20.933 12.5504C21.8373 12.6387 22.7073 12.8657 23.5414 13.2241C24.6042 13.6781 25.5427 14.3157 26.3605 15.1336C27.3296 16.1027 28.0429 17.2339 28.4968 18.5273C28.6734 19.028 28.7977 19.5432 28.8877 20.0656C28.8949 20.1034 28.8931 20.1431 28.8949 20.1809C28.8733 20.1773 28.8679 20.1575 28.8607 20.1431C28.7688 19.9233 28.6067 19.7702 28.4086 19.6477C28.0501 19.4261 27.6628 19.2658 27.2755 19.1055C26.5406 18.8011 25.793 18.5255 25.0473 18.2499C24.8708 18.185 24.6978 18.1094 24.5159 18.0625H24.5177C24.5123 18.0571 24.5051 18.0499 24.4997 18.0445C22.9812 17.4933 21.4608 16.9439 19.9423 16.3909C19.0741 16.0757 18.2238 15.7226 17.4276 15.2488C17.062 15.0309 16.7107 14.7913 16.4351 14.4563C16.3234 14.3212 16.2333 14.1734 16.2027 13.9969C16.1541 13.6961 16.3 13.4835 16.5234 13.3106C16.8044 13.0908 17.1322 12.9665 17.4673 12.8639C18.0473 12.6855 18.6417 12.5811 19.247 12.5324C19.3965 12.5198 19.546 12.5108 19.6937 12.5C19.8919 12.5 20.09 12.5 20.2882 12.5Z" fill="#1A1B2A"/>
<path d="M24.515 18.062C24.6987 18.1088 24.8717 18.1845 25.0464 18.2494C25.7922 18.5268 26.5397 18.8006 27.2747 19.105C27.6619 19.2653 28.0492 19.4256 28.4077 19.6472C28.6058 19.7697 28.768 19.9228 28.8598 20.1426C28.867 20.1588 28.8706 20.1768 28.8941 20.1804C28.8887 20.202 28.8905 20.22 28.9085 20.2362C28.9535 20.4902 28.9715 20.7478 28.9859 21.0036C29.022 21.6431 28.9895 22.2789 28.8905 22.9094C28.8616 22.9184 28.849 22.8986 28.8328 22.886C28.0979 22.324 27.3593 21.7638 26.6784 21.1351C25.7561 20.2867 25.0086 19.3139 24.5384 18.1413C24.524 18.1197 24.4988 18.0962 24.515 18.062Z" fill="#1A1B2A" fill-opacity="0.6"/>
<path d="M28.9048 20.2361C28.8868 20.2217 28.885 20.2019 28.8904 20.1803C28.912 20.1965 28.9066 20.2163 28.9048 20.2361Z" fill="#FED73F"/>
<path d="M24.499 18.0447C24.5043 18.05 24.5097 18.0571 24.5168 18.0624C24.499 18.0677 24.5008 18.0518 24.499 18.0447Z" fill="#FE6F03"/>
</svg>
