<svg width="350" height="350" viewBox="0 0 350 350" fill="none" xmlns="http://www.w3.org/2000/svg">
<path d="M175 350C271.65 350 350 271.65 350 175C350 78.3502 271.65 0 175 0C78.3502 0 0 78.3502 0 175C0 271.65 78.3502 350 175 350Z" fill="url(#paint0_linear_1347_2)"/>
<path fill-rule="evenodd" clip-rule="evenodd" d="M27.1102 81.1156L146.402 237.137C161.4 254.385 175.454 258.705 192.485 251.85C210.684 241.15 211.352 219.749 193.486 202.026C179.582 190.994 170.061 183.597 150.743 169.089C88.6307 122.441 149.073 47.538 206.343 84.655C213.933 90.6123 217.611 94.144 222.873 100.873L335.093 247.283C331.925 254.292 328.312 261.055 324.289 267.536L205.174 112.41C200.406 106.723 198.032 104.495 193.987 101.876C154.416 80.4753 130.039 125.117 161.095 150.363C165.105 153.41 168.846 156.227 172.379 158.887C185.324 168.633 195.48 176.28 205.842 185.474C237.733 210.052 232.557 254.191 203.838 269.406C181.298 282.28 150.576 277.766 130.707 251.182L16.0925 101.347C19.3297 94.341 23.0145 87.585 27.1102 81.1156Z" fill="white"/>
<defs>
<linearGradient id="paint0_linear_1347_2" x1="54" y1="51.3333" x2="276.667" y2="308.667" gradientUnits="userSpaceOnUse">
<stop stop-color="#02B8FF"/>
<stop offset="0.555208" stop-color="#2436FF"/>
<stop offset="1" stop-color="#7026FE"/>
</linearGradient>
</defs>
</svg>
