<svg xmlns="http://www.w3.org/2000/svg" xml:space="preserve" width="26" height="26" style="shape-rendering:geometricPrecision;text-rendering:geometricPrecision;image-rendering:optimizeQuality;fill-rule:evenodd;clip-rule:evenodd" viewBox="0 0 23442.11 23442.11"><defs><linearGradient id="a" gradientUnits="userSpaceOnUse" x1="7559.43" y1="15882.82" x2="15882.85" y2="7559.41"><stop offset="0" style="stop-opacity:1;stop-color:#6086ff"/><stop offset="1" style="stop-opacity:1;stop-color:#ff47c2"/></linearGradient></defs><circle cx="11721.05" cy="11721.05" r="11721.05" style="fill:#1b1b1b"/><path d="M14997.67 8447.25c-611.83 129.81-1193.78 432.31-1668.97 907.45-887.07 887.05-2325.29 887.05-3212.34 0l-.53.5c-210.26-210.26-550.87-210.26-761.14 0-210.28 210.29-210.28 550.91 0 761.17 887.05 887.05 887.05 2325.26 0 3212.31-887.07 887.07-2324.99 886.81-3212.07-.26-887.05-887.05-887.05-2324.74 0-3211.79l3974.01-3974c886.78-886.79 2325-886.79 3211.81 0 210.37 210.26 551.03 210.52 761.4.26s210.11-551.14-.26-761.4l.79-.8c-1307.61-1307.61-3428.07-1307.61-4735.68 0l-3974 3974.01c-1307.61 1307.61-1307.61 3428.07 0 4735.68 832.73 832.7 1995.09 1135.18 3066.82 907.16 611.74-129.55 1193.98-432.29 1668.85-907.16 887.05-887.08 2325.27-887.08 3212.34 0 210.37 210.26 550.77 210.26 761.14 0 210.37-210.29 210.37-550.91 0-761.17l.53-.53c-886.94-887.05-886.94-2325.26 0-3212.31s2324.92-886.81 3212.13.26c886.94 887.05 886.67 2325 0 3211.79l-3974.06 3974c-887.08 887.08-2325.03 886.81-3211.81 0l-.53.53c-210.26-210.26-551.14-210-761.41.27-210.28 210.26-210.28 550.87 0 761.14 1307.61 1307.6 3428.07 1307.6 4735.68 0l3974.06-3973.98c1307.42-1307.61 1307.42-3428.07 0-4735.68-832.76-832.74-1994.56-1135.21-3066.76-907.45m-2576.42 3974c-460.25-97.68-937.21-97.68-1397.46 0 97.71-460.25 97.71-937.2 0-1397.45 460.25 97.7 937.21 97.7 1397.46 0-97.68 460.25-97.68 937.2 0 1397.45" style="fill:url(#a)"/></svg>
