<svg width="122" height="122" viewBox="0 0 122 122" fill="none" xmlns="http://www.w3.org/2000/svg">
<g filter="url(#filter0_d_87_72)">
<path d="M61 102C85.8528 102 106 81.8528 106 57C106 32.1472 85.8528 12 61 12C36.1472 12 16 32.1472 16 57C16 81.8528 36.1472 102 61 102Z" fill="#2E3148"/>
<path d="M60.8921 82.4672C75.2515 82.4672 86.8921 70.8266 86.8921 56.4672C86.8921 42.1078 75.2515 30.4672 60.8921 30.4672C46.5327 30.4672 34.8921 42.1078 34.8921 56.4672C34.8921 70.8266 46.5327 82.4672 60.8921 82.4672Z" fill="#1B1E36"/>
<path d="M118 57C118 64.4853 116.526 71.8974 113.661 78.813C110.797 85.7285 106.598 92.0121 101.305 97.3051C96.0121 102.598 89.7285 106.797 82.813 109.661C75.8974 112.526 68.4853 114 61 114C53.5147 114 46.1026 112.526 39.187 109.661C32.2715 106.797 25.9879 102.598 20.6949 97.3051C15.402 92.0121 11.2034 85.7285 8.33886 78.813C5.47435 71.8974 4 64.4853 4 57H17.6615C17.6615 62.6913 18.7824 68.3269 20.9604 73.5849C23.1384 78.843 26.3307 83.6206 30.355 87.645C34.3794 91.6693 39.157 94.8616 44.4151 97.0396C49.6731 99.2176 55.3087 100.339 61 100.339C66.6913 100.339 72.3269 99.2176 77.5849 97.0396C82.843 94.8616 87.6206 91.6693 91.645 87.645C95.6693 83.6206 98.8616 78.843 101.04 73.5849C103.218 68.3269 104.339 62.6913 104.339 57H118Z" fill="#C73238"/>
<path d="M106 57C106 62.9095 104.836 68.7611 102.575 74.2208C100.313 79.6804 96.9984 84.6412 92.8198 88.8198C88.6412 92.9984 83.6804 96.3131 78.2208 98.5746C72.7611 100.836 66.9095 102 61 102C55.0905 102 49.2389 100.836 43.7792 98.5746C38.3196 96.3131 33.3588 92.9984 29.1802 88.8198C25.0016 84.6412 21.6869 79.6804 19.4254 74.2208C17.164 68.7611 16 62.9095 16 57L61 57H106Z" fill="#070B09"/>
<path d="M60.0884 17.6154C55.3387 17.6154 51.4873 34.8422 51.4873 56.0928C51.4873 77.3434 55.3387 94.5703 60.0884 94.5703C64.8381 94.5703 68.6895 77.3434 68.6895 56.0928C68.6895 34.8422 64.8381 17.6154 60.0884 17.6154ZM60.6823 92.3988C60.1391 93.1232 59.5959 92.5797 59.5959 92.5797C57.4085 90.0453 56.3148 85.337 56.3148 85.337C52.4888 73.0244 53.3994 46.5881 53.3994 46.5881C55.1975 25.6005 58.4684 20.6426 59.5815 19.5419C59.6952 19.4295 59.8448 19.3609 60.0041 19.348C60.1634 19.3351 60.3222 19.3788 60.4524 19.4715C62.0674 20.6158 63.422 25.4016 63.422 25.4016C67.4219 40.2493 67.0597 54.1917 67.0597 54.1917C67.4219 66.3234 65.0553 79.9035 65.0553 79.9035C63.2337 90.2242 60.6823 92.3988 60.6823 92.3988Z" fill="white"/>
<path d="M93.4614 36.9425C91.0967 32.8213 74.239 38.0541 55.7974 48.6289C37.3558 59.2037 24.3473 71.1178 26.7102 75.2373C29.0732 79.3567 45.9326 74.1256 64.3742 63.5509C82.8159 52.9761 95.8244 41.0619 93.4614 36.9425ZM28.8919 74.6719C27.9866 74.5579 28.1911 73.8138 28.1911 73.8138C29.3017 70.656 32.8357 67.3641 32.8357 67.3641C41.6157 57.9178 65.0011 45.5524 65.0011 45.5524C84.0986 36.6672 90.0305 37.0421 91.5353 37.4564C91.6897 37.4995 91.8239 37.5959 91.9141 37.7285C92.0043 37.8611 92.0447 38.0213 92.0281 38.1808C91.8471 40.152 88.3613 43.7072 88.3613 43.7072C77.4803 54.5696 65.2057 61.1949 65.2057 61.1949C54.8628 67.5485 41.9057 72.2509 41.9057 72.2509C32.0466 75.8036 28.8923 74.6719 28.8923 74.6719H28.8919Z" fill="white"/>
<path d="M93.3796 75.3729C95.7626 71.2627 82.787 59.2942 64.4103 48.64C46.0336 37.9858 29.1782 32.6883 26.7973 36.8056C24.4164 40.9229 37.39 52.8843 55.7772 63.5385C74.1645 74.1927 90.9987 79.4905 93.3796 75.3729ZM28.3764 38.3938C28.0244 37.5592 28.7675 37.3582 28.7675 37.3582C32.0572 36.737 36.6782 38.1527 36.6782 38.1527C49.2498 41.0154 71.6667 55.0572 71.6667 55.0572C88.9261 67.1345 91.5731 72.4542 91.9698 73.9642C92.0102 74.1191 91.9945 74.2833 91.9256 74.4277C91.8567 74.5722 91.739 74.6876 91.5932 74.7537C89.7935 75.5778 84.9732 74.35 84.9732 74.35C70.1165 70.3665 58.2348 63.0679 58.2348 63.0679C47.5591 57.31 37.0028 48.4503 37.0028 48.4503C28.9815 41.6966 28.3789 38.4029 28.3789 38.4029L28.3764 38.3938Z" fill="white"/>
<path d="M59.9984 60.5222C62.4984 60.5222 64.5251 58.4955 64.5251 55.9955C64.5251 53.4954 62.4984 51.4688 59.9984 51.4688C57.4984 51.4688 55.4717 53.4954 55.4717 55.9955C55.4717 58.4955 57.4984 60.5222 59.9984 60.5222Z" fill="white"/>
<path d="M78.5603 41.3327C80.0102 41.3327 81.1855 40.1167 81.1855 38.6167C81.1855 37.1166 80.0102 35.9006 78.5603 35.9006C77.1104 35.9006 75.9351 37.1166 75.9351 38.6167C75.9351 40.1167 77.1104 41.3327 78.5603 41.3327Z" fill="white"/>
<path d="M35.4616 50.5659C36.9117 50.5659 38.0872 49.3498 38.0872 47.8498C38.0872 46.3498 36.9117 45.1338 35.4616 45.1338C34.0115 45.1338 32.8359 46.3498 32.8359 47.8498C32.8359 49.3498 34.0115 50.5659 35.4616 50.5659Z" fill="white"/>
<path d="M54.6575 83.8823C56.1076 83.8823 57.2832 82.6663 57.2832 81.1662C57.2832 79.6662 56.1076 78.4502 54.6575 78.4502C53.2073 78.4502 52.0317 79.6662 52.0317 81.1662C52.0317 82.6663 53.2073 83.8823 54.6575 83.8823Z" fill="white"/>
</g>
<defs>
<filter id="filter0_d_87_72" x="0" y="0" width="122" height="122" filterUnits="userSpaceOnUse" color-interpolation-filters="sRGB">
<feFlood flood-opacity="0" result="BackgroundImageFix"/>
<feColorMatrix in="SourceAlpha" type="matrix" values="0 0 0 0 0 0 0 0 0 0 0 0 0 0 0 0 0 0 127 0" result="hardAlpha"/>
<feOffset dy="4"/>
<feGaussianBlur stdDeviation="2"/>
<feComposite in2="hardAlpha" operator="out"/>
<feColorMatrix type="matrix" values="0 0 0 0 0 0 0 0 0 0 0 0 0 0 0 0 0 0 0.25 0"/>
<feBlend mode="normal" in2="BackgroundImageFix" result="effect1_dropShadow_87_72"/>
<feBlend mode="normal" in="SourceGraphic" in2="effect1_dropShadow_87_72" result="shape"/>
</filter>
</defs>
</svg>
