<svg version="1.1" xmlns="http://www.w3.org/2000/svg" viewBox="0 0 2500 2500">
  <circle fill="#E50571" cx="1250" cy="1250" r="1250" />
  <circle fill="#FFFFFF" cx="1250.4" cy="1250.4" r="109.8" />
  <path
    fill="#FFFFFF"
    d="M1642.3,1253.4C1929.6,1053.7,2106,865,2062,788.2c-28.4-49.6-143.5-43.4-306.8,6.9
	c-11.1-19.3-31.4-32.2-54.7-32.2c-35.2,0-63.7,29.5-63.7,65.9c0,2.4,0.2,4.8,0.3,7.1c-59.6,22.6-123.4,49.6-189.9,80.5
	c-30.1-349.2-105.9-597-194.6-597c-88.5,0-164.2,247-194.5,595.4C741.4,766.4,489.6,708.2,445.1,785
	c-27.7,48.1,30.6,140.2,148.5,251.6c-1.3,5.2-2,10.7-2,16.3c0,36.4,28.5,65.9,63.7,65.9c9,0,17.5-2,25.3-5.4
	c53.7,44.6,114.9,91.3,182.3,138.5C575.5,1451.5,399,1640.2,443.1,1717c44.1,76.9,296.7,19.4,614.8-128.2
	c6.7,78.3,15.8,151.4,26.8,217.9c-16.6,11.9-27.6,31.8-27.6,54.2c0,31.8,21.9,58.4,50.9,64.5c37.5,161.3,88.4,260.5,144.5,260.5
	c88.6,0,164.2-247.1,194.5-595.5c316.7,148.5,568.5,206.8,612.9,130C2104.4,1643.6,1928.6,1454.2,1642.3,1253.4z M1656.4,876.3
	c11.4,11.4,27,18.4,44.1,18.4c31.7,0,58-23.9,62.8-55.3c162.8-51,228.9-45.1,251.9-38.8c7.8,2.1,12.8,9.6,12,17.6
	c-4.4,47.8-89,134-89,134c-112.8,112.6-231.7,206.3-331,276.9c-46.8-32-96.2-64.2-147.9-96.1c-1.7-59.2-4.6-116.8-8.7-172
	C1529.3,926.1,1597.4,898.3,1656.4,876.3z M1376.7,1376.4c-40.5,24.8-82.6,48.7-124.7,71.1c-28.7-16-44.4-25.7-44.4-25.7
	c-39.5-21.3-79-44.4-117.5-68.2c-1.9-73-2.3-140-2-194.3c60.6-36.9,116.9-69.5,163-95.7c65.1,35.5,123.8,69.2,170.6,96.6
	c0.3,29.6-0.1,46.2-0.1,46.2c1.5,47.7,1.1,96.3-0.4,144.4C1392.9,1367.6,1376.7,1376.4,1376.7,1376.4z M1419.4,1396.8
	c-2.1,45.6-5.3,90.1-8.9,132.2c-46.4-22-86.2-42.4-118.1-59.4c21.3-11.7,42.7-23.7,64.2-36
	C1377.8,1421.3,1398.7,1409.1,1419.4,1396.8z M1210.8,1468.9c-38.6,19.8-76.9,38.3-113.5,55.5c-2.6-42.2-4.4-84-5.8-124.5
	c18.5,11.2,37.4,22.3,56.4,33.3C1169.1,1445.5,1190,1457.3,1210.8,1468.9z M1044.6,1324.9c-36.9-23.7-72.6-47.8-106-71.2
	c35.6-23.4,71.3-46,105.9-67.5c-0.3,21.9-0.5,44.1-0.5,66.5C1044,1276.9,1044.2,1301,1044.6,1324.9z M1094,981.1
	c38.2,19.2,75.9,38.8,112,58.1c-19,10.6-38.2,21.3-57.5,32.4c-20.2,11.6-40.3,23.3-59.9,35.1c0.7-52.8,1.8-84.6,1.8-84.6
	C1091.5,1008.1,1092.8,994.5,1094,981.1z M1297.2,1037.7c46.3-25.8,74.5-40.7,74.5-40.7c14-6.5,27.7-12.8,41-18.9
	c4.2,50.8,6.4,95.3,7.7,131c-20.7-12.5-41.7-24.9-63.1-37.3C1337.3,1060.3,1317.2,1048.8,1297.2,1037.7z M1460.5,1183.3
	c45.6,27.2,72.8,44.2,72.8,44.2c13,9,25.6,18,38,26.8c-42.4,29.2-80.2,53.5-110.8,72.6c0.4-24.5,0.7-49.3,0.7-74.4
	C1461.1,1229.3,1461,1206.2,1460.5,1183.3z M1240.3,366.1c5.7-5.6,14.6-6.3,21.1-1.7c39.2,27.7,72.1,143.8,72.1,143.8
	c41.6,154.4,63.8,304.8,75.5,426.2c-50.6,24.2-102.6,50.6-155.6,79.1c-52.6-28.5-104.3-55.1-154.7-79.4
	C1143.3,498.9,1214.9,391.2,1240.3,366.1z M711.9,1083.1c4.5-9,7.2-19.4,7.2-30.3c0-36.4-28.5-65.9-63.7-65.9
	c-14.3,0-27.3,4.9-38,13C494.1,881.6,483.5,823.6,483.5,823.6l-0.1-0.3c-8.5-20.2,9.5-25.1,9.5-25.1c79.8-15,191.8,19.3,191.8,19.3
	c105.4,24,239.4,80.4,369.6,143.9c-4,55-6.9,112.1-8.6,171c-50.9,31.2-99.6,62.5-145.8,93.7C812.3,1163.5,743.6,1108.8,711.9,1083.1
	z M811.7,1644.5c-239.1,86.1-315.6,58.7-315.6,58.7l0,0c-21.9-2.7-17-20.8-17-20.8C506,1605.9,591.8,1526,591.8,1526
	c73.6-79.2,189.5-166.8,309.7-247.6c45.8,31.2,94,62.5,144.3,93.6c1.7,59.3,4.6,116.9,8.7,172.2
	C917,1606.3,811.7,1644.5,811.7,1644.5z M1373,1830c-44.2,250.3-106,303.1-106,303.1c-13.1,17.6-26.4,4.4-26.4,4.4
	c-53-61.5-79.6-175.7-79.6-175.7c-4.2-13.4-8.1-27.4-11.8-42.1c20.9-10.8,35.3-33.1,35.3-58.9c0-35.1-26.5-63.8-59.9-65.7
	c-11-71.2-18.9-148.7-24.3-226.4c49.3-23.7,100.1-49.5,151.7-77.2c52.7,28.5,104.4,55.1,154.7,79.5
	C1392.2,1720.3,1373,1830,1373,1830z M2016.6,1705.2c-43.6,20-160.6-9.8-160.6-9.8c-154-41.3-294.8-97.2-405.6-147.9
	c4.2-56.2,7.2-114.7,9-175.1c50.9-31.2,99.6-62.6,145.8-93.8c354.2,256.9,411.5,372.9,420.4,407.3
	C2027.8,1693.9,2023.9,1701.9,2016.6,1705.2z"
  />
</svg>
