<svg width="30" height="30" viewBox="0 0 30 30" xmlns="http://www.w3.org/2000/svg">
    <g fill="none" fill-rule="evenodd">
        <path d="M0 0h30v30H0z"/>
        <rect fill="#13132A" x="1" y="1" width="28" height="28" rx="14"/>
        <path d="M16.528 21.072 18.662 24h-7.171l1.98-2.928h3.057zM15 4.006c.02-.042.085.158.085.158l.072.154.086.171c.562 1.085 1.968 3.169 5.474 6.484 3.769 3.56 4.097 6.524 1.98 8.94-1.903 2.172-4.961 1.197-6.168.249v-5.57h2.312v-2.8h-7.682v2.8h2.313v5.57c-1.207.948-4.266 1.923-6.17-.25-2.116-2.415-1.787-5.378 1.98-8.939 3.895-3.684 5.199-5.847 5.633-6.809l.018-.05c.02-.056.054-.136.067-.108z" fill="#1BFFBC"/>
    </g>
</svg>
