<svg width="295" height="295" viewBox="0 0 295 295" fill="none" xmlns="http://www.w3.org/2000/svg">
<path d="M148 271C211.513 271 263 219.513 263 156C263 92.4873 211.513 41 148 41C84.4873 41 33 92.4873 33 156C33 219.513 84.4873 271 148 271Z" fill="#7B2BF9"/>
<path d="M230.662 138.428C227.35 122.558 219.484 108.022 207.754 96.292C191.792 80.33 170.586 71.544 148 71.544C125.414 71.544 104.208 80.284 88.2459 96.246C84.3359 100.156 80.9319 104.342 77.9419 108.758C77.0679 109.954 76.2399 111.196 75.5499 112.53C67.7299 125.548 63.5439 140.406 63.5439 156C63.5439 178.586 72.3299 199.792 88.2919 215.754C104.254 231.716 125.46 240.502 148.046 240.502C170.632 240.502 191.838 231.716 207.8 215.754C215.298 208.256 221.278 199.516 225.464 190.086C225.97 189.074 226.384 187.97 226.798 186.866C230.616 177.206 232.594 166.764 232.594 156.046C232.594 150.388 232.042 145.006 230.938 139.578C230.892 139.302 230.708 138.612 230.662 138.428ZM201.36 99.834C201.82 100.294 202.326 100.754 202.832 101.26C210.284 108.712 216.08 117.452 219.898 126.928C220.266 127.848 219.484 128.906 218.426 128.722C216.218 128.308 213.688 128.17 210.928 128.216C208.996 128.262 207.294 126.882 206.972 125.042C205.454 116.578 203.246 108.804 200.486 101.996C200.348 101.628 200.164 101.26 200.026 100.8C199.658 99.926 200.716 99.144 201.36 99.834ZM209.41 149.376C209.41 148.502 210.514 148.088 211.066 148.824C211.664 149.698 212.308 150.618 212.906 151.492C213.688 152.688 214.424 153.884 215.068 155.08C215.482 155.816 215.39 156.736 214.838 157.38C213.964 158.346 212.952 159.404 211.894 160.462C211.526 160.83 211.112 161.244 210.698 161.658C210.192 162.118 209.318 161.75 209.364 161.106C209.41 159.818 209.456 158.576 209.456 157.242C209.502 154.528 209.502 151.952 209.41 149.376ZM103.012 92.888C116.076 83.55 131.624 78.536 148 78.536C152.324 78.536 156.602 78.904 160.788 79.548C161.892 79.732 162.306 81.158 161.386 81.848C157.338 85.022 153.612 89.714 150.254 95.786C149.472 97.304 147.724 97.994 146.068 97.534C135.028 94.452 124.172 92.98 114.144 93.302C110.418 93.44 106.968 93.808 103.656 94.406C102.736 94.636 102.276 93.44 103.012 92.888ZM91.9719 208.67C90.3159 205.634 92.4319 198.504 103.15 187.648C104.254 186.544 104.162 184.704 102.92 183.692C102.506 183.37 102.092 183.048 101.632 182.68C100.574 181.852 99.0099 181.898 98.0439 182.864C97.8139 183.094 97.6759 183.232 97.6299 183.278C92.2939 188.752 88.5219 193.858 86.4519 198.458C85.8539 199.792 84.0599 199.93 83.2779 198.688C74.9519 186.176 70.4899 171.456 70.4899 156.046C70.4899 150.572 71.0419 145.098 72.1919 139.854C72.3759 139.072 73.4799 139.026 73.7559 139.808C75.3659 145.098 77.9879 150.618 81.5759 156.138C86.4519 163.59 92.8459 170.766 100.482 177.39C103.058 179.644 105.818 181.806 108.716 183.922C114.558 188.2 120.814 192.11 127.53 195.56C130.474 197.124 133.418 198.55 136.362 199.93C138.018 200.666 139.904 200.712 141.56 200.068C142.986 199.516 144.366 198.964 145.792 198.366C147.356 197.722 148.184 196.066 147.77 194.41C147.724 194.226 147.678 194.042 147.678 193.95C145.332 184.152 144.044 173.066 143.86 161.52C143.86 161.382 143.86 158.76 143.86 156.046C143.86 153.332 143.952 152.09 144.044 150.112C144.734 136.128 147.126 123.018 150.898 111.932C151.22 110.92 150.714 109.816 149.656 109.448C148.69 109.126 147.678 108.804 146.666 108.482C145.7 108.16 144.596 108.712 144.228 109.724C140.134 121.73 137.604 135.944 136.96 150.986C136.868 152.918 135.856 154.666 134.2 155.632C125.276 160.922 117.134 166.534 110.004 172.146C108.532 173.342 106.416 173.25 104.99 172.054C97.9059 165.89 91.9259 159.22 87.4179 152.274C78.5399 138.658 76.4239 125.87 81.4839 116.164L81.5299 116.118C82.1739 115.06 82.8639 114.002 83.5539 112.99C89.3499 105.354 100.114 100.892 114.42 100.386C115.294 100.34 116.26 100.34 117.134 100.34C125.92 100.34 135.304 101.812 144.872 104.572C145.056 104.618 146.436 105.032 146.712 105.124C149.15 105.906 153.29 107.332 153.842 107.516C154.072 107.608 155.36 108.114 155.544 108.16C160.236 110 164.882 112.07 169.482 114.462C178.406 119.108 186.548 124.536 193.724 130.516C180.154 133.598 164.376 139.624 148.506 147.674C147.77 148.042 147.264 148.778 147.218 149.606C147.172 150.572 147.08 152.55 147.034 154.16C146.988 155.126 148.046 155.816 148.92 155.356C164.652 147.076 180.338 140.958 193.816 137.646C196.346 137.048 197.956 134.656 197.634 132.08C197.404 130.286 197.128 128.492 196.806 126.79C196.438 124.628 195.196 122.65 193.494 121.362C187.192 116.578 180.246 112.162 172.794 108.252C167.78 105.63 162.72 103.376 157.568 101.398C156.51 100.984 156.004 99.696 156.602 98.684C161.846 89.3 168.102 84.056 174.22 84.056C174.266 84.056 174.358 84.056 174.404 84.056C181.58 84.194 188.71 91.646 194.046 104.572C196.714 111.104 198.784 118.648 200.256 126.836C200.67 129.136 200.992 131.482 201.268 133.874C201.406 135.116 201.636 137.002 201.774 137.83C202.372 144.04 202.602 150.526 202.51 157.104C202.418 161.29 202.234 165.43 201.866 169.432C192.252 177.16 180.384 184.934 167.32 191.834C163.778 193.674 160.236 195.468 156.74 197.124C156.004 197.492 152.968 198.826 152.784 198.918C149.472 200.436 146.206 201.77 142.94 203.058C142.756 203.15 139.076 204.53 138.846 204.622C138.57 204.714 136.684 205.404 136.454 205.496C129.416 207.98 122.654 209.866 116.49 211.062C100.896 214.052 93.5819 211.752 91.9719 208.67ZM113.178 178.586C119.986 173.066 127.99 167.454 136.776 162.21C136.96 173.434 138.202 184.244 140.41 193.95C137.19 192.524 133.924 191.052 130.704 189.35C124.448 186.13 118.56 182.496 113.178 178.586ZM157.982 232.866C154.716 233.28 151.358 233.51 148 233.51C132.912 233.51 118.514 229.232 106.186 221.274C105.358 220.722 105.726 219.388 106.692 219.342C106.876 219.342 107.106 219.342 107.244 219.296C110.372 219.112 113.822 218.652 117.548 217.916C125.46 216.352 134.292 213.776 143.538 210.234C144.366 209.912 145.286 210.326 145.654 211.154C149.242 219.894 153.612 226.472 158.626 230.658C159.5 231.394 159.086 232.728 157.982 232.866ZM190.78 212.166C185.26 223.068 178.452 229.14 171.828 229.002C164.652 228.864 157.522 221.412 152.186 208.486C151.864 207.704 152.232 206.738 153.014 206.37C153.06 206.324 153.106 206.324 153.198 206.278C153.52 206.14 153.934 206.094 154.302 206.186C164.192 208.946 173.99 210.418 183.144 210.418C184.11 210.418 185.122 210.418 186.088 210.372C187.192 210.326 188.342 210.28 189.446 210.188C190.504 210.188 191.24 211.246 190.78 212.166ZM193.172 202.782C190.872 203.104 188.434 203.334 185.904 203.426C179.694 203.656 173.116 203.104 166.4 201.862C165.572 201.724 165.434 200.574 166.17 200.206C167.642 199.47 169.114 198.688 170.586 197.906C180.89 192.432 190.55 186.452 198.968 180.334C199.566 179.874 200.486 180.426 200.348 181.162C199.152 188.2 197.588 194.824 195.518 200.804C195.104 201.908 194.23 202.644 193.172 202.782ZM204.626 208.946C204.074 209.544 203.43 210.188 202.832 210.786C201.82 211.798 200.67 212.856 199.612 213.822C198.922 214.42 197.864 213.684 198.232 212.856C198.324 212.626 198.462 212.396 198.554 212.12C199.014 211.108 199.428 210.05 199.934 208.992C200.026 208.762 200.256 208.578 200.486 208.486C201.544 208.21 202.648 207.888 203.66 207.566C204.58 207.29 205.224 208.348 204.626 208.946ZM220.174 184.382C219.852 185.164 219.576 185.946 219.208 186.728C219.116 186.866 218.656 187.832 218.61 187.97C216.034 192.708 211.802 196.434 206.282 199.056C204.994 199.654 203.614 198.504 203.982 197.124C205.914 190.316 207.294 182.956 208.26 175.182C208.444 173.71 209.134 172.422 210.238 171.456C212.584 169.432 214.792 167.362 216.816 165.338C217.782 164.372 219.484 164.786 219.898 166.12C221.876 172.79 222.014 179 220.174 184.382ZM221.738 148.088C221.186 149.1 219.668 149.146 219.024 148.18C218.932 148.042 218.84 147.858 218.748 147.72C216.448 144.132 213.78 140.682 210.836 137.278C210.1 136.45 210.698 135.162 211.802 135.116H211.848C218.794 135.116 222.428 136.864 223.532 138.934C224.406 140.682 224.13 143.764 221.738 148.088ZM225.51 158.3C225.51 158.806 224.774 158.944 224.59 158.484C224.498 158.3 224.406 158.07 224.314 157.886C224.13 157.518 224.176 157.058 224.452 156.69C224.498 156.644 224.59 156.506 224.728 156.322C225.05 155.908 225.556 155.954 225.556 156.414C225.51 157.058 225.51 157.656 225.51 158.3Z" fill="white"/>
<mask id="mask0_679_10" style="mask-type:alpha" maskUnits="userSpaceOnUse" x="0" y="0" width="295" height="295">
<path d="M295 147.5C295 228.962 228.962 295 147.5 295C66.038 295 0 228.962 0 147.5C0 66.038 66.038 0 147.5 0C228.962 0 295 66.038 295 147.5Z" fill="url(#paint0_linear_679_10)"/>
</mask>
<g mask="url(#mask0_679_10)">
<mask id="mask1_679_10" style="mask-type:alpha" maskUnits="userSpaceOnUse" x="-35" y="-24" width="366" height="365">
<path d="M147.5 316C234.782 316 305 245.782 305 158.5C305 71.2182 234.782 1 147.5 1C60.2185 1 -9.99976 71.2182 -9.99976 158.5C-9.99976 245.782 60.2185 316 147.5 316Z" stroke="black" stroke-width="50"/>
</mask>
<g mask="url(#mask1_679_10)">
<mask id="mask2_679_10" style="mask-type:alpha" maskUnits="userSpaceOnUse" x="-71" y="-62" width="525" height="426">
<path d="M-70.4999 363.001C-74.1 358.602 -27.8267 109.834 -5.99333 -13.9996C138.673 -30.8326 427.107 -63.7986 423.507 -60.9986C419.907 -58.1986 442.007 123.501 453.507 214.001L367.007 363.001C367.007 363.001 286 226 248.5 256C211 286 210.5 279 237.5 256C264.5 233 197.507 120.001 197.507 120.001H113.5C113.5 120.001 31.5001 235 57.5001 256C83.5001 277 84.0001 287 46.5001 256C9.00006 225 -66.8999 367.401 -70.4999 363.001Z" fill="#D9D9D9"/>
</mask>
<g mask="url(#mask2_679_10)">
<path d="M295 147.5C295 229.514 228.962 296 147.5 296C66.038 296 0 229.514 0 147.5C0 65.4857 66.038 -1 147.5 -1C228.962 -1 295 65.4857 295 147.5Z" fill="url(#paint1_linear_679_10)"/>
</g>
</g>
</g>
<defs>
<linearGradient id="paint0_linear_679_10" x1="146.987" y1="295" x2="146.987" y2="1.38252e-06" gradientUnits="userSpaceOnUse">
<stop stop-color="white"/>
<stop offset="0.332589" stop-color="#6DA1F7"/>
<stop offset="0.561755" stop-color="#4861CE"/>
<stop offset="1" stop-color="#162335"/>
</linearGradient>
<linearGradient id="paint1_linear_679_10" x1="146.987" y1="296" x2="146.987" y2="-0.999999" gradientUnits="userSpaceOnUse">
<stop stop-color="white"/>
<stop offset="0.332589" stop-color="#6DA1F7"/>
<stop offset="0.561755" stop-color="#4861CE"/>
<stop offset="1" stop-color="#162335"/>
</linearGradient>
</defs>
</svg>
