<svg width="295" height="297" viewBox="0 0 295 297" fill="none" xmlns="http://www.w3.org/2000/svg">
<path d="M148.299 271.918C211.729 271.918 262.758 220.889 262.758 157.459C262.758 94.0293 211.729 43 148.299 43C84.8693 43 33.84 94.0293 33.84 157.459C33.84 220.889 84.8693 271.918 148.299 271.918Z" fill="#2775CA"/>
<path d="M179.775 175.581C179.775 158.889 169.76 153.167 149.73 150.782C135.422 148.874 132.561 145.059 132.561 138.382C132.561 131.704 137.33 127.413 146.868 127.413C155.453 127.413 160.222 130.275 162.606 137.428C163.084 138.859 164.515 139.813 165.945 139.813H173.575C175.483 139.813 176.914 138.382 176.914 136.475V135.998C175.006 125.505 166.421 117.398 155.453 116.445V104.999C155.453 103.091 154.022 101.66 151.638 101.183H144.484C142.576 101.183 141.145 102.613 140.668 104.999V115.967C126.361 117.875 117.3 127.413 117.3 139.336C117.3 155.075 126.838 161.274 146.868 163.659C160.222 166.043 164.515 168.905 164.515 176.536C164.515 184.167 157.837 189.412 148.776 189.412C136.376 189.412 132.084 184.165 130.653 177.012C130.177 175.105 128.746 174.15 127.315 174.15H119.207C117.3 174.15 115.869 175.581 115.869 177.489V177.966C117.776 189.888 125.407 198.473 141.145 200.858V212.304C141.145 214.211 142.576 215.642 144.96 216.119H152.114C154.022 216.119 155.453 214.688 155.93 212.304V200.858C170.237 198.473 179.775 188.458 179.775 175.581Z" fill="white"/>
<path d="M123.976 225.657C86.7771 212.304 67.7002 170.813 81.5314 134.09C88.6851 114.059 104.423 98.7986 123.976 91.6449C125.884 90.6914 126.838 89.2607 126.838 86.8754V80.199C126.838 78.2909 125.884 76.8602 123.976 76.384C123.499 76.384 122.546 76.384 122.068 76.8602C76.7619 91.1676 51.962 139.337 66.2694 184.643C74.8539 211.35 95.3615 231.857 122.068 240.442C123.976 241.395 125.884 240.442 126.36 238.534C126.838 238.058 126.838 237.58 126.838 236.627V229.949C126.838 228.519 125.407 226.612 123.976 225.657ZM174.529 76.8602C172.621 75.9067 170.713 76.8602 170.237 78.7682C169.76 79.2455 169.76 79.7217 169.76 80.6763V87.3526C169.76 89.2607 171.191 91.1676 172.621 92.1222C209.821 105.475 228.898 146.966 215.066 183.689C207.913 203.72 192.174 218.981 172.621 226.134C170.713 227.088 169.76 228.519 169.76 230.904V237.58C169.76 239.488 170.713 240.919 172.621 241.395C173.099 241.395 174.052 241.395 174.529 240.919C219.836 226.612 244.636 178.443 230.328 133.136C221.744 105.952 200.759 85.4446 174.529 76.8602Z" fill="white"/>
<mask id="mask0_113_17" style="mask-type:alpha" maskUnits="userSpaceOnUse" x="0" y="0" width="295" height="297">
<path d="M295 148.5C295 230.514 228.962 297 147.5 297C66.038 297 0 230.514 0 148.5C0 66.4857 66.038 0 147.5 0C228.962 0 295 66.4857 295 148.5Z" fill="url(#paint0_linear_113_17)"/>
</mask>
<g mask="url(#mask0_113_17)">
<mask id="mask1_113_17" style="mask-type:alpha" maskUnits="userSpaceOnUse" x="-34" y="-25" width="366" height="365">
<path d="M148.5 315C235.782 315 306 244.782 306 157.5C306 70.2182 235.782 0 148.5 0C61.2184 0 -8.99982 70.2182 -8.99982 157.5C-8.99982 244.782 61.2184 315 148.5 315Z" stroke="black" stroke-width="50"/>
</mask>
<g mask="url(#mask1_113_17)">
<mask id="mask2_113_17" style="mask-type:alpha" maskUnits="userSpaceOnUse" x="-70" y="-63" width="525" height="426">
<path d="M-69.5 362.001C-73.1 357.602 -26.8267 108.834 -4.99341 -14.9996C139.673 -31.8326 428.107 -64.7986 424.507 -61.9986C420.907 -59.1986 443.007 122.501 454.507 213.001L368.007 362.001C368.007 362.001 287 225 249.5 255C212 285 211.5 278 238.5 255C265.5 232 198.506 119.001 198.506 119.001H114.5C114.5 119.001 32.5 234 58.5 255C84.5 276 85 286 47.5 255C9.99998 224 -65.9 366.401 -69.5 362.001Z" fill="#D9D9D9"/>
</mask>
<g mask="url(#mask2_113_17)">
<path d="M296 146.5C296 228.514 229.962 295 148.5 295C67.038 295 1 228.514 1 146.5C1 64.4857 67.038 -2 148.5 -2C229.962 -2 296 64.4857 296 146.5Z" fill="url(#paint1_linear_113_17)"/>
</g>
</g>
</g>
<defs>
<linearGradient id="paint0_linear_113_17" x1="146.987" y1="297" x2="146.987" y2="1.3919e-06" gradientUnits="userSpaceOnUse">
<stop stop-color="white"/>
<stop offset="0.332589" stop-color="#6DA1F7"/>
<stop offset="0.561755" stop-color="#4861CE"/>
<stop offset="1" stop-color="#162335"/>
</linearGradient>
<linearGradient id="paint1_linear_113_17" x1="147.987" y1="295" x2="147.987" y2="-2" gradientUnits="userSpaceOnUse">
<stop stop-color="white"/>
<stop offset="0.332589" stop-color="#6DA1F7"/>
<stop offset="0.561755" stop-color="#4861CE"/>
<stop offset="1" stop-color="#162335"/>
</linearGradient>
</defs>
</svg>
