<svg xmlns="http://www.w3.org/2000/svg" width="32" height="32" viewBox="0 0 32 32" fill="none">
  <g clip-path="url(#clip0_11634_19845)">
    <mask id="mask0_11634_19845" style="mask-type:luminance" maskUnits="userSpaceOnUse" x="0" y="0" width="32" height="32">
      <path d="M32 0H0V32H32V0Z" fill="white"/>
    </mask>
    <g mask="url(#mask0_11634_19845)">
      <mask id="mask1_11634_19845" style="mask-type:alpha" maskUnits="userSpaceOnUse" x="0" y="0" width="32" height="32">
        <path d="M16 32C24.8366 32 32 24.8366 32 16C32 7.16344 24.8366 0 16 0C7.16344 0 0 7.16344 0 16C0 24.8366 7.16344 32 16 32Z" fill="#C4C4C4"/>
      </mask>
      <g mask="url(#mask1_11634_19845)">
        <path d="M35.7568 38.0548C49.7513 29.9751 54.5461 12.0804 46.4664 -1.91414C38.3867 -15.9086 20.492 -20.7035 6.49748 -12.6238C-7.49702 -4.54405 -12.2919 13.3506 -4.21216 27.3451C3.86757 41.3396 21.7623 46.1345 35.7568 38.0548Z" fill="url(#paint0_linear_11634_19845)"/>
      </g>
    </g>
    <mask id="mask2_11634_19845" style="mask-type:luminance" maskUnits="userSpaceOnUse" x="2" y="11" width="28" height="10">
      <path d="M29.1998 11.2002H2.7998V20.8802H29.1998V11.2002Z" fill="white"/>
    </mask>
    <g mask="url(#mask2_11634_19845)">
      <path d="M22.9997 16.29C22.9957 16.6275 22.8595 16.95 22.6201 17.1886C22.3807 17.4272 22.0572 17.5631 21.7188 17.5671C22.0572 17.571 22.3807 17.7068 22.6201 17.9455C22.8595 18.1841 22.9957 18.5067 22.9997 18.8441C23.0037 18.5067 23.1399 18.1841 23.3793 17.9455C23.6187 17.7068 23.9421 17.571 24.2807 17.5671C23.9421 17.5631 23.6187 17.4272 23.3793 17.1886C23.1399 16.95 23.0037 16.6275 22.9997 16.29Z" fill="white"/>
      <path d="M18.5376 11.2002H16.542C16.4164 11.2004 16.2933 11.2351 16.1863 11.3004C16.0792 11.3658 15.9922 11.4592 15.9348 11.5705L11.4105 20.3157C11.38 20.374 11.3652 20.439 11.3674 20.5046C11.3696 20.5702 11.3887 20.6341 11.423 20.6902C11.4573 20.7462 11.5056 20.7924 11.5631 20.8244C11.6206 20.8564 11.6854 20.8729 11.7513 20.8725H14.0364C14.1631 20.8726 14.2872 20.8375 14.3948 20.7712C14.5025 20.7048 14.5896 20.61 14.6462 20.4971L18.9604 11.9179C18.9976 11.844 19.0158 11.7619 19.0131 11.6792C19.0104 11.5964 18.987 11.5157 18.9449 11.4444C18.9029 11.373 18.8436 11.3132 18.7724 11.2706C18.7013 11.228 18.6206 11.2037 18.5376 11.2002Z" fill="white"/>
      <path d="M12.9294 14.7275C12.9427 14.751 12.9581 14.7733 12.9755 14.7939V14.8067C12.9922 14.8249 13.0102 14.8421 13.0293 14.8577C13.0486 14.873 13.0702 14.8851 13.0934 14.8935C13.1165 14.9027 13.1406 14.9095 13.1651 14.914C13.1898 14.9164 13.2147 14.9164 13.2394 14.914C13.2919 14.9118 13.3434 14.8988 13.3905 14.8757C13.4336 14.8534 13.4719 14.8231 13.5032 14.7862C13.5176 14.7668 13.5304 14.7463 13.5417 14.7249L14.7791 12.3343C14.7913 12.312 14.8 12.2878 14.8047 12.2628C14.8114 12.2404 14.8157 12.2172 14.8175 12.1938C14.82 12.1777 14.82 12.1614 14.8175 12.1453C14.82 12.1284 14.82 12.1112 14.8175 12.0942C14.8189 12.0857 14.8189 12.0772 14.8175 12.0687C14.8121 12.045 14.8044 12.0219 14.7944 11.9997L14.5946 11.586C14.5817 11.5582 14.5663 11.5317 14.5485 11.5068L14.5306 11.4838L14.4947 11.4378L14.4691 11.4123L14.4307 11.3765L14.4024 11.3536L14.3615 11.3229C14.3495 11.3176 14.3383 11.3107 14.3282 11.3025L14.2846 11.2795L14.2488 11.2641L14.2001 11.2463H14.1642L14.1079 11.2335C14.0673 11.2255 14.0262 11.2212 13.9849 11.2207H11.7509C11.685 11.2208 11.6202 11.2378 11.5628 11.2701C11.5053 11.3024 11.4572 11.3488 11.423 11.405C11.3888 11.4612 11.3696 11.5252 11.3674 11.5909C11.3652 11.6565 11.3799 11.7217 11.4102 11.7801L12.9294 14.7275Z" fill="white"/>
      <path d="M29.1557 20.3157L24.6315 11.5705C24.5737 11.459 24.4862 11.3655 24.3787 11.3001C24.2712 11.2348 24.1477 11.2003 24.0217 11.2002H22.0363C21.9104 11.2003 21.7869 11.2348 21.6793 11.3001C21.5718 11.3655 21.4844 11.459 21.4266 11.5705L18.0961 18.0273C18.087 18.0456 18.0729 18.061 18.0555 18.0717C18.0381 18.0825 18.0181 18.0882 17.9975 18.0882C17.977 18.0882 17.9569 18.0825 17.9395 18.0717C17.9221 18.061 17.908 18.0456 17.8989 18.0273L17.5377 17.3121C17.5128 17.2615 17.4741 17.2188 17.4261 17.1889C17.3781 17.159 17.3227 17.1432 17.2661 17.1432C17.2095 17.1432 17.1541 17.159 17.1061 17.1889C17.0581 17.2188 17.0194 17.2615 16.9945 17.3121L15.7162 19.8356C15.6941 19.8792 15.6826 19.9272 15.6826 19.976C15.6826 20.0248 15.6941 20.073 15.7162 20.1165L15.9288 20.5048C15.9868 20.6154 16.074 20.7082 16.1809 20.773C16.288 20.8379 16.4108 20.8723 16.536 20.8725H19.5231C19.6499 20.8722 19.7742 20.8369 19.8822 20.7707C19.9903 20.7044 20.0779 20.6098 20.1354 20.4971L21.3497 18.0937C21.433 17.9335 21.4765 17.7556 21.4765 17.5752C21.4765 17.3948 21.433 17.2169 21.3497 17.0568L20.4761 15.3864C20.4214 15.2823 20.3945 15.166 20.3982 15.0485C20.4019 14.9311 20.4359 14.8166 20.4969 14.7161C20.5581 14.6157 20.6441 14.5327 20.7469 14.4752C20.8496 14.4176 20.9654 14.3875 21.0833 14.3877H24.985C25.1026 14.3879 25.2182 14.4184 25.3205 14.476C25.4229 14.5338 25.5087 14.6168 25.5694 14.7172C25.6302 14.8176 25.664 14.932 25.6675 15.0492C25.6711 15.1664 25.6442 15.2825 25.5896 15.3864L24.6058 17.2585C24.556 17.3548 24.53 17.4617 24.53 17.5701C24.53 17.6785 24.556 17.7853 24.6058 17.8817L25.9252 20.492C25.9827 20.6047 26.0703 20.6993 26.1784 20.7656C26.2864 20.8319 26.4107 20.8671 26.5375 20.8674H28.8125C28.8775 20.8672 28.9415 20.8504 28.9983 20.8187C29.0551 20.787 29.1029 20.7414 29.1372 20.6863C29.1715 20.6312 29.1912 20.5682 29.1945 20.5034C29.1977 20.4386 29.1844 20.374 29.1557 20.3157Z" fill="white"/>
      <path d="M12.704 15.6013C12.4222 15.0751 11.9354 14.1199 11.5998 13.4738C11.5691 13.4133 11.5219 13.3626 11.4636 13.3278C11.4054 13.2928 11.3384 13.275 11.2704 13.2763C11.2025 13.2777 11.1362 13.2981 11.0794 13.3353C11.0226 13.3725 10.9774 13.4249 10.9491 13.4865L9.08665 17.4658C9.07721 17.4852 9.06249 17.5016 9.04409 17.513C9.02577 17.5246 9.00457 17.5306 8.98289 17.5306C8.96121 17.5306 8.94001 17.5246 8.92169 17.513C8.90329 17.5016 8.88857 17.4852 8.87913 17.4658L6.06107 11.5786C6.00444 11.4658 5.9174 11.3708 5.80971 11.3045C5.70202 11.2382 5.57793 11.2031 5.45134 11.2031H3.19434C3.12842 11.2032 3.06362 11.2202 3.00618 11.2525C2.94874 11.2847 2.90059 11.3312 2.86638 11.3874C2.83215 11.4436 2.813 11.5076 2.81077 11.5733C2.80854 11.639 2.8233 11.7042 2.85362 11.7625L7.37786 20.5077C7.43523 20.619 7.52222 20.7125 7.62932 20.7778C7.73642 20.8431 7.85949 20.8778 7.98503 20.878H9.97305C10.0986 20.8778 10.2216 20.8431 10.3287 20.7778C10.4358 20.7125 10.5228 20.619 10.5802 20.5077L12.7194 16.3701C12.779 16.2501 12.8087 16.1176 12.806 15.9838C12.8034 15.85 12.7683 15.7187 12.704 15.6013Z" fill="white"/>
    </g>
  </g>
  <defs>
    <linearGradient id="paint0_linear_11634_19845" x1="3.95987" y1="0.480778" x2="33.4799" y2="32.6807" gradientUnits="userSpaceOnUse">
      <stop stop-color="#160054"/>
      <stop offset="0.53125" stop-color="#362189"/>
      <stop offset="1" stop-color="#170059"/>
    </linearGradient>
    <clipPath id="clip0_11634_19845">
      <rect width="32" height="32" fill="white"/>
    </clipPath>
  </defs>
</svg>
