<svg width="24" height="24" viewBox="0 0 24 24" fill="none" xmlns="http://www.w3.org/2000/svg">
<circle cx="12" cy="12" r="10" fill="url(#paint0_linear_1885_23008)"/>
<path d="M11.1315 12.3338V12.4625L11.132 12.3339L11.1315 12.3338Z" fill="white"/>
<mask id="mask0_1885_23008" style="mask-type:alpha" maskUnits="userSpaceOnUse" x="2" y="2" width="20" height="20">
<path d="M12 22C17.5228 22 22 17.5228 22 12C22 6.47715 17.5228 2 12 2C6.47715 2 2 6.47715 2 12C2 17.5228 6.47715 22 12 22Z" fill="#E8E8E9"/>
</mask>
<g mask="url(#mask0_1885_23008)">
<path d="M19.1777 20.7512C13.227 17.0706 12.1679 10.2729 12.0085 9.13148C11.8508 10.2729 10.7906 17.0706 4.83825 20.7512C2.43602 22.2387 0.0644614 22.7045 -1.50919 22.8582C1.22185 22.6724 3.85983 21.7911 6.15368 20.2983C9.78947 17.9205 11.4203 14.7186 12.0082 13.3878C12.5972 14.7186 14.2281 17.9205 17.8636 20.2983C20.1562 21.7903 22.7926 22.6715 25.5221 22.858C23.9498 22.7001 21.5799 22.2376 19.1777 20.7512Z" fill="white"/>
<path d="M19.1777 20.7512C13.227 17.0706 12.1679 10.2729 12.0085 9.13148C11.8508 10.2729 10.7906 17.0706 4.83825 20.7512C2.43602 22.2387 0.0644614 22.7045 -1.50919 22.8582C1.22185 22.6724 3.85983 21.7911 6.15368 20.2983C9.78947 17.9205 11.4203 14.7186 12.0082 13.3878C12.5972 14.7186 14.2281 17.9205 17.8636 20.2983C20.1562 21.7903 22.7926 22.6715 25.5221 22.858C23.9498 22.7001 21.5799 22.2376 19.1777 20.7512Z" fill="url(#paint1_linear_1885_23008)"/>
<path d="M19.937 18.8643C16.9425 14.724 17.2536 8.57102 20.5424 4.71093C22.5413 2.36384 25.1018 1.49829 26.3677 1.16882C25.5364 1.11026 21.2023 0.890245 17.693 4.08482C15.4518 6.12733 14.6608 8.55104 14.3798 9.63606C13.589 8.38256 12.7984 7.13035 12.008 5.87941C11.2175 7.13308 10.427 8.3853 9.63642 9.63606C9.3574 8.55104 8.56414 6.12733 6.32319 4.08482C2.81554 0.887509 -1.51959 1.10917 -2.35091 1.16882C-1.08503 1.4972 1.47492 2.36384 3.47408 4.71093C6.75829 8.57102 7.07208 14.724 4.07977 18.8643C2.26598 21.3761 -0.252071 22.4327 -1.50973 22.8555C0.0639184 22.7014 2.43548 22.2357 4.83799 20.7484C10.79 17.0678 11.8505 10.2701 12.008 9.12844C12.1679 10.2701 13.2268 17.0678 19.1774 20.7484C21.5813 22.2359 23.9529 22.6981 25.5251 22.8555C24.2667 22.43 21.7557 21.3761 19.937 18.8643Z" fill="white"/>
</g>
<path fill-rule="evenodd" clip-rule="evenodd" d="M7.30039 19.4959C10.1477 17.242 11.4947 14.5716 12.0174 13.3849C12.54 14.5694 13.8831 17.2321 16.7195 19.4834C16.8575 19.3962 16.993 19.3052 17.1257 19.2107C12.9787 15.4195 12.1565 10.1131 12.0176 9.11539C11.88 10.1143 11.0554 15.4325 6.89386 19.2246C7.02671 19.3186 7.16226 19.4091 7.30039 19.4959Z" fill="url(#paint2_linear_1885_23008)"/>
<defs>
<linearGradient id="paint0_linear_1885_23008" x1="12" y1="3.15385" x2="12" y2="20.8462" gradientUnits="userSpaceOnUse">
<stop stop-color="#3C11B5"/>
<stop offset="1" stop-color="#180B3F"/>
</linearGradient>
<linearGradient id="paint1_linear_1885_23008" x1="12.0065" y1="14.8369" x2="12.0065" y2="21.1847" gradientUnits="userSpaceOnUse">
<stop stop-color="#FF00C7"/>
<stop offset="0.57" stop-color="#6200C0" stop-opacity="0.5"/>
<stop offset="1" stop-color="#4E00BF" stop-opacity="0"/>
</linearGradient>
<linearGradient id="paint2_linear_1885_23008" x1="12.0098" y1="13.4299" x2="12.0098" y2="18.2304" gradientUnits="userSpaceOnUse">
<stop stop-color="#FF00C7"/>
<stop offset="0.57" stop-color="#6200C0" stop-opacity="0.5"/>
<stop offset="1" stop-color="#4E00BF" stop-opacity="0"/>
</linearGradient>
</defs>
</svg>
