<svg width="256" height="256" viewBox="0 0 256 256" fill="none" xmlns="http://www.w3.org/2000/svg">
<circle cx="128" cy="128" r="128" fill="#202232"/>
<g clip-path="url(#clip0_2709_1489)">
<path d="M172.487 181.337C167.187 181.337 163.029 181.337 158.145 181.337C132.785 136.839 159.392 183.004 134.24 138.819C158.56 96.0937 130.083 146.114 154.091 103.805C156.793 108.286 158.976 112.038 161.262 115.893C139.541 154.034 169.993 100.47 148.167 138.924C173.526 183.108 146.816 136.318 172.487 181.337Z" fill="white"/>
<path d="M141.305 80.9795C144.112 85.9815 146.086 89.4204 148.373 93.3804C123.013 138.086 149.62 91.192 124.053 136.002C76.556 136.002 132.367 136.002 84.0391 136.002C86.4295 131.729 88.4042 128.082 90.6907 124.018C133.822 124.018 73.6459 124.018 116.881 124.018C142.137 79.3121 115.426 126.415 141.305 80.9795Z" fill="white"/>
<path d="M126.657 146.735C150.561 188.419 122.188 138.92 146.404 181.124C141.311 181.124 136.946 181.124 132.165 181.124C110.652 143.609 141.103 196.756 119.382 158.719C68.9749 158.719 122.084 158.719 70.8457 158.719C73.3401 154.238 75.3148 150.591 77.4973 146.735C128.216 146.735 75.5226 146.735 126.657 146.735Z" fill="white"/>
<path d="M106.393 181.336H64.1965C61.3903 181.336 59.5196 178.314 60.8707 175.709L64.4044 169.248H113.668C133.103 203.116 100.469 146.218 120.631 181.232C115.123 181.336 110.862 181.336 106.393 181.336Z" fill="white"/>
<path d="M174.459 138.607C198.363 180.499 174.978 140.17 195.141 175.601C196.596 178.102 194.725 181.229 191.919 181.229H184.54C158.973 137.252 185.579 183.938 159.908 139.336C179.447 104.947 147.125 161.95 167.287 126.415C169.99 131.104 172.172 134.856 174.459 138.607Z" fill="white"/>
<path d="M103.795 101.198C128.011 58.6811 104.626 99.7395 124.893 64.0999C126.348 61.5989 129.882 61.5989 131.337 63.9957L135.39 70.5609C109.927 115.371 136.43 68.5809 111.07 113.287H96.9355C99.5338 108.806 101.612 105.158 103.795 101.198Z" fill="white"/>
</g>
<defs>
<clipPath id="clip0_2709_1489">
<rect width="135.111" height="119.111" fill="white" transform="translate(60.4453 62.2222)"/>
</clipPath>
</defs>
</svg>
