<?xml version="1.0" standalone="no"?>
<!DOCTYPE svg PUBLIC "-//W3C//DTD SVG 20010904//EN"
 "http://www.w3.org/TR/2001/REC-SVG-20010904/DTD/svg10.dtd">
<svg version="1.0" xmlns="http://www.w3.org/2000/svg"
 width="182.000000pt" height="180.000000pt" viewBox="0 0 182.000000 180.000000"
 preserveAspectRatio="xMidYMid meet">

<g transform="translate(0.000000,180.000000) scale(0.100000,-0.100000)"
fill="#000000" stroke="none">
<path d="M0 900 l0 -900 910 0 910 0 0 900 0 900 -910 0 -910 0 0 -900z m1078
864 c151 -30 301 -109 419 -218 123 -114 199 -237 250 -403 24 -79 27 -103 27
-243 0 -141 -3 -163 -28 -245 -91 -300 -314 -518 -618 -606 -104 -30 -288 -37
-396 -15 -350 71 -627 347 -698 695 -26 132 -16 317 24 441 98 298 353 529
657 593 94 20 267 21 363 1z"/>
<path d="M721 1715 c-317 -72 -561 -316 -636 -635 -25 -107 -23 -281 4 -384
106 -405 486 -668 899 -626 198 21 363 101 504 246 76 78 102 114 148 204 70
139 85 204 85 380 0 181 -15 244 -93 394 -50 96 -154 217 -241 281 -63 46
-169 97 -256 125 -92 28 -318 37 -414 15z m385 -90 c268 -78 472 -297 528
-567 35 -168 15 -330 -59 -483 -128 -266 -383 -425 -680 -425 -443 0 -789 385
-745 828 10 97 24 148 61 230 85 188 255 341 453 407 132 44 311 48 442 10z"/>
<path d="M750 1515 c-225 -55 -407 -236 -465 -463 -20 -80 -20 -228 0 -307 28
-109 82 -203 170 -290 128 -129 262 -185 445 -185 179 0 316 56 441 180 250
249 252 646 4 895 -121 121 -281 186 -454 184 -47 0 -111 -7 -141 -14z m-115
-359 c41 -18 72 -64 81 -124 6 -43 5 -45 -47 -98 l-53 -54 53 0 54 0 -6 -69
c-9 -113 -45 -159 -130 -168 -33 -4 -50 0 -77 19 -61 41 -70 73 -70 243 0 170
9 202 69 242 39 26 77 29 126 9z m664 -13 c34 -25 61 -79 61 -123 0 -29 -8
-44 -45 -80 -25 -24 -45 -48 -45 -52 0 -4 21 -8 46 -8 l47 0 -5 -74 c-5 -83
-21 -116 -71 -146 -58 -36 -137 -17 -181 43 -19 26 -21 42 -21 195 0 150 2
171 20 202 40 68 132 88 194 43z"/>
</g>
</svg>
